<?xml version="1.0" encoding="UTF-8" standalone="no"?>
<!-- Created with Inkscape (http://www.inkscape.org/) -->

<svg
   version="1.1"
   id="svg2"
   xml:space="preserve"
   width="480"
   height="384"
   viewBox="0 0 480 384"
   sodipodi:docname="arrows.eps"
   xmlns:inkscape="http://www.inkscape.org/namespaces/inkscape"
   xmlns:sodipodi="http://sodipodi.sourceforge.net/DTD/sodipodi-0.dtd"
   xmlns="http://www.w3.org/2000/svg"
   xmlns:svg="http://www.w3.org/2000/svg"><defs
     id="defs6" /><sodipodi:namedview
     id="namedview4"
     pagecolor="#ffffff"
     bordercolor="#666666"
     borderopacity="1.0"
     inkscape:pageshadow="2"
     inkscape:pageopacity="0.0"
     inkscape:pagecheckerboard="0" /><g
     id="g8"
     inkscape:groupmode="layer"
     inkscape:label="ink_ext_XXXXXX"
     transform="matrix(1.3333333,0,0,-1.3333333,0,384)"><g
       id="g10"
       transform="scale(0.1)"><path
         d="M 3600,0 H -0.00390625 V 2880 H 3600 V 0"
         style="fill:#ffffff;fill-opacity:1;fill-rule:nonzero;stroke:none"
         id="path12" /><path
         d="M 579.34,2616.48 H 323.148 l 174.68,-214.51 -174.68,-214.51 H 579.34 l 174.68,214.51 -174.68,214.51"
         style="fill:#4dc184;fill-opacity:1;fill-rule:nonzero;stroke:none"
         id="path14" /><path
         d="M 579.34,1267.19 H 450.836 L 625.512,1052.68 450.836,838.16 H 579.34 l 174.68,214.52 -174.68,214.51"
         style="fill:#4dc184;fill-opacity:1;fill-rule:nonzero;stroke:none"
         id="path16" /><path
         d="M 1041.38,1267.19 H 912.887 L 1087.55,1052.68 912.887,838.16 h 128.493 l 174.68,214.52 -174.68,214.51"
         style="fill:#161c38;fill-opacity:1;fill-rule:nonzero;stroke:none"
         id="path18" /><path
         d="m 1268.16,1267.19 h -128.51 l 174.68,-214.51 -174.68,-214.52 h 128.51 l 174.68,214.52 -174.68,214.51"
         style="fill:#161c38;fill-opacity:1;fill-rule:nonzero;stroke:none"
         id="path20" /><path
         d="m 1690.52,1267.19 h -68.03 l 174.67,-214.51 -174.67,-214.52 h 68.03 l 174.67,214.52 -174.67,214.51"
         style="fill:#4dc184;fill-opacity:1;fill-rule:nonzero;stroke:none"
         id="path22" /><path
         d="m 1820.91,1267.19 h -68.02 l 174.66,-214.51 -174.66,-214.52 h 68.02 l 174.68,214.52 -174.68,214.51"
         style="fill:#4dc184;fill-opacity:1;fill-rule:nonzero;stroke:none"
         id="path24" /><path
         d="m 1951.3,1267.19 h -68.02 l 174.67,-214.51 -174.67,-214.52 h 68.02 l 174.68,214.52 -174.68,214.51"
         style="fill:#4dc184;fill-opacity:1;fill-rule:nonzero;stroke:none"
         id="path26" /><path
         d="m 2081.7,1267.19 h -68.03 l 174.67,-214.51 -174.67,-214.52 h 68.03 l 174.67,214.52 -174.67,214.51"
         style="fill:#4dc184;fill-opacity:1;fill-rule:nonzero;stroke:none"
         id="path28" /><path
         d="M 3068.15,1257.92 H 2945.2 v -64.83 L 3059.53,1052.68 2945.2,912.27 v -64.829 h 122.95 l 167.13,205.239 -167.13,205.24"
         style="fill:#4dc184;fill-opacity:1;fill-rule:nonzero;stroke:none"
         id="path30" /><path
         d="m 2451.72,1191.07 h -82.91 l 112.7,-138.39 -112.7,-138.391 h 82.91 l 112.69,138.391 -112.69,138.39"
         style="fill:#161c38;fill-opacity:1;fill-rule:nonzero;stroke:none"
         id="path32" /><path
         d="m 2596.67,1267.19 h -128.51 l 174.68,-214.51 -174.68,-214.52 h 128.51 l 174.66,214.52 -174.66,214.51"
         style="fill:#161c38;fill-opacity:1;fill-rule:nonzero;stroke:none"
         id="path34" /><path
         d="M 408.188,1919.16 644.574,1704.65 408.188,1490.13 754.02,1704.65 408.188,1919.16"
         style="fill:#161c38;fill-opacity:1;fill-rule:nonzero;stroke:none"
         id="path36" /><path
         d="m 878.57,1919.16 130.57,-214.51 -130.57,-214.52 345.83,214.52 -345.83,214.51"
         style="fill:#4dc184;fill-opacity:1;fill-rule:nonzero;stroke:none"
         id="path38" /><path
         d="M 2267.54,551.98 2411.01,380.871 2267.54,209.75 2647.55,380.871 2267.54,551.98"
         style="fill:#4dc184;fill-opacity:1;fill-rule:nonzero;stroke:none"
         id="path40" /><path
         d="M 2919.1,565.121 3023.12,387.012 2919.1,208.898 3194.64,387.012 2919.1,565.121"
         style="fill:#4dc184;fill-opacity:1;fill-rule:nonzero;stroke:none"
         id="path42" /><path
         d="m 1823.04,1499.45 c -5.9,0 -11.73,2.59 -15.68,7.57 -6.87,8.65 -5.41,21.23 3.24,28.1 l 213.7,169.53 -213.7,169.52 c -8.65,6.87 -10.11,19.45 -3.24,28.1 6.86,8.66 19.44,10.11 28.1,3.24 l 233.45,-185.19 c 4.79,-3.8 7.57,-9.57 7.57,-15.67 0,-6.11 -2.78,-11.88 -7.57,-15.67 l -233.45,-185.2 c -3.68,-2.92 -8.06,-4.33 -12.42,-4.33"
         style="fill:#161c38;fill-opacity:1;fill-rule:nonzero;stroke:none"
         id="path44" /><path
         d="m 2340.83,1499.45 c -5.89,0 -11.72,2.59 -15.68,7.57 -6.86,8.65 -5.41,21.23 3.24,28.1 l 213.7,169.53 -213.7,169.52 c -8.65,6.87 -10.1,19.45 -3.24,28.1 6.87,8.66 19.44,10.11 28.11,3.24 l 233.44,-185.19 c 4.79,-3.8 7.57,-9.57 7.57,-15.67 0,-6.11 -2.78,-11.88 -7.57,-15.67 l -233.44,-185.2 c -3.68,-2.92 -8.07,-4.33 -12.43,-4.33"
         style="fill:#4dc184;fill-opacity:1;fill-rule:nonzero;stroke:none"
         id="path46" /><path
         d="m 2212.34,1499.45 c -5.9,0 -11.74,2.59 -15.68,7.57 -6.87,8.65 -5.42,21.23 3.23,28.1 l 213.7,169.53 -213.7,169.52 c -8.65,6.87 -10.1,19.45 -3.23,28.1 6.86,8.66 19.44,10.11 28.09,3.24 l 233.45,-185.19 c 4.78,-3.8 7.57,-9.57 7.57,-15.67 0,-6.11 -2.79,-11.88 -7.57,-15.67 l -233.45,-185.2 c -3.67,-2.92 -8.06,-4.33 -12.41,-4.33"
         style="fill:#4dc184;fill-opacity:1;fill-rule:nonzero;stroke:none"
         id="path48" /><path
         d="m 2922.89,1499.45 c -5.9,0 -11.73,2.59 -15.69,7.57 -6.86,8.65 -5.41,21.23 3.24,28.1 l 213.7,169.53 -213.7,169.52 c -8.65,6.87 -10.1,19.45 -3.24,28.1 6.88,8.66 19.45,10.11 28.11,3.24 l 233.44,-185.19 c 4.78,-3.8 7.57,-9.57 7.57,-15.67 0,-6.11 -2.79,-11.88 -7.57,-15.67 l -233.44,-185.2 c -3.68,-2.92 -8.07,-4.33 -12.42,-4.33"
         style="fill:#161c38;fill-opacity:1;fill-rule:nonzero;stroke:none"
         id="path50" /><path
         d="m 2794.38,1499.45 c -5.9,0 -11.73,2.59 -15.68,7.57 -6.87,8.65 -5.41,21.23 3.24,28.1 l 213.7,169.53 -213.7,169.52 c -8.65,6.87 -10.11,19.45 -3.24,28.1 6.87,8.66 19.45,10.11 28.1,3.24 l 233.45,-185.19 c 4.78,-3.8 7.57,-9.57 7.57,-15.67 0,-6.11 -2.79,-11.88 -7.57,-15.67 l -233.45,-185.2 c -3.68,-2.92 -8.06,-4.33 -12.42,-4.33"
         style="fill:#161c38;fill-opacity:1;fill-rule:nonzero;stroke:none"
         id="path52" /><path
         d="m 2665.87,1499.45 c -5.89,0 -11.72,2.59 -15.68,7.57 -6.86,8.65 -5.41,21.23 3.24,28.1 l 213.7,169.53 -213.7,169.52 c -8.65,6.87 -10.1,19.45 -3.24,28.1 6.87,8.66 19.44,10.11 28.11,3.24 l 233.44,-185.19 c 4.79,-3.8 7.57,-9.57 7.57,-15.67 0,-6.11 -2.78,-11.88 -7.57,-15.67 l -233.44,-185.2 c -3.69,-2.92 -8.07,-4.33 -12.43,-4.33"
         style="fill:#161c38;fill-opacity:1;fill-rule:nonzero;stroke:none"
         id="path54" /><path
         d="m 1351.01,1919.16 73.87,-214.51 -73.87,-214.52 345.83,214.52 -345.83,214.51"
         style="fill:#4dc184;fill-opacity:1;fill-rule:nonzero;stroke:none"
         id="path56" /><path
         d="m 1314.46,2616.48 h -256.19 l 174.67,-214.51 -174.67,-214.51 h 256.19 l 174.68,214.51 -174.68,214.51"
         style="fill:#161c38;fill-opacity:1;fill-rule:nonzero;stroke:none"
         id="path58" /><path
         d="M 988.949,2616.48 H 905.328 L 1080,2401.97 905.328,2187.46 h 83.621 l 174.671,214.51 -174.671,214.51"
         style="fill:#161c38;fill-opacity:1;fill-rule:nonzero;stroke:none"
         id="path60" /><path
         d="m 2132.73,2616.48 h -256.19 l 174.67,-214.51 -174.67,-214.51 h 256.19 l 174.67,214.51 -174.67,214.51"
         style="fill:#4dc184;fill-opacity:1;fill-rule:nonzero;stroke:none"
         id="path62" /><path
         d="m 1807.21,2616.48 h -83.62 l 174.68,-214.51 -174.68,-214.51 h 83.62 l 174.68,214.51 -174.68,214.51"
         style="fill:#4dc184;fill-opacity:1;fill-rule:nonzero;stroke:none"
         id="path64" /><path
         d="m 1656.03,2616.48 h -83.62 l 174.67,-214.51 -174.67,-214.51 h 83.62 l 174.68,214.51 -174.68,214.51"
         style="fill:#4dc184;fill-opacity:1;fill-rule:nonzero;stroke:none"
         id="path66" /><path
         d="m 3090.83,2616.48 h -256.19 l 174.68,-214.51 -174.68,-214.51 h 256.19 l 174.68,214.51 -174.68,214.51"
         style="fill:#161c38;fill-opacity:1;fill-rule:nonzero;stroke:none"
         id="path68" /><path
         d="m 2765.33,2616.48 h -83.63 l 174.68,-214.51 -174.68,-214.51 h 83.63 l 174.67,214.51 -174.67,214.51"
         style="fill:#161c38;fill-opacity:1;fill-rule:nonzero;stroke:none"
         id="path70" /><path
         d="m 2614.15,2616.48 h -83.63 l 174.68,-214.51 -174.68,-214.51 h 83.63 l 174.66,214.51 -174.66,214.51"
         style="fill:#161c38;fill-opacity:1;fill-rule:nonzero;stroke:none"
         id="path72" /><path
         d="m 2463.91,2616.48 h -83.62 l 174.67,-214.51 -174.67,-214.51 h 83.62 l 174.67,214.51 -174.67,214.51"
         style="fill:#161c38;fill-opacity:1;fill-rule:nonzero;stroke:none"
         id="path74" /><path
         d="M 711.625,602.941 H 583.121 L 757.797,388.43 583.121,173.91 H 711.625 L 886.293,388.43 711.625,602.941"
         style="fill:#161c38;fill-opacity:1;fill-rule:nonzero;stroke:none"
         id="path76" /><path
         d="M 328.813,335.512 H 786.137 V 441.34 H 328.813 V 335.512"
         style="fill:#161c38;fill-opacity:1;fill-rule:nonzero;stroke:none"
         id="path78" /><path
         d="M 2760.94,338.449 H 3053.3 V 435.57 H 2760.94 V 338.449"
         style="fill:#161c38;fill-opacity:1;fill-rule:nonzero;stroke:none"
         id="path80" /><path
         d="M 1314.46,602.941 H 1185.95 L 1360.63,388.43 1185.95,173.91 h 128.51 l 174.68,214.52 -174.68,214.511"
         style="fill:#4dc184;fill-opacity:1;fill-rule:nonzero;stroke:none"
         id="path82" /><path
         d="m 1037.48,296.77 h 336.37 V 480.082 H 1037.48 V 296.77"
         style="fill:#4dc184;fill-opacity:1;fill-rule:nonzero;stroke:none"
         id="path84" /><path
         d="M 2011.78,602.941 H 1804.72 L 1979.4,388.43 1804.72,173.91 h 207.06 l 174.68,214.52 -174.68,214.511"
         style="fill:#161c38;fill-opacity:1;fill-rule:nonzero;stroke:none"
         id="path86" /><path
         d="m 1627.08,271.031 h 430.87 V 505.828 H 1627.08 V 271.031"
         style="fill:#161c38;fill-opacity:1;fill-rule:nonzero;stroke:none"
         id="path88" /></g></g></svg>
