<svg xmlns="http://www.w3.org/2000/svg" viewBox="150 439.92 700 120.16"><defs/><path fill-rule="evenodd" transform="matrix(0.49727262830422503 0 0 0.49727262830422503 10.90257164865454 30.694133988567675)" d="M 650.53381401913 860.85555586542 C 651.63381401913 862.15555586542 647.93381401913 858.35555586542 649.73381401913 859.95555586542 C 638.93381401913 850.55555586542 628.13381401913 841.75555586542 615.43381401913 834.95555586542 C 599.43381401913 826.45555586542 582.03381401913 823.85555586542 564.13381401913 823.05555586542 C 525.23381401913 821.35555586542 490.93381401913 838.55555586542 467.23381401913 869.15555586542 C 462.73381401913 874.95555586542 450.63381401913 901.55555586542 416.83381401913 891.85555586542 C 401.83381401913 887.55555586542 364.83381401913 873.95555586542 341.33381401913 859.65555586542 C 334.03381401913 855.25555586542 326.53381401913 850.95555586542 318.73381401913 847.65555586542 C 311.93381401913 844.75555586542 304.13381401913 842.05555586542 296.43381401913 843.65555586542 C 292.03381401913 844.55555586542 284.33381401913 847.75555586542 281.03381401913 857.95555586542 C 277.63381401913 868.55555586542 281.53381401913 876.05555586542 284.83381401913 879.65555586542 C 290.03381401913 885.55555586542 298.03381401913 887.85555586542 305.23381401913 889.55555586542 C 313.53381401913 891.45555586542 322.03381401913 892.35555586542 330.63381401913 893.05555586542 C 358.03381401913 895.25555586542 398.53381401913 907.05555586542 410.73381401913 911.05555586542 C 437.23381401913 919.65555586542 440.23381401913 947.45555586542 440.63381401913 952.65555586542 C 443.03381401913 988.35555586542 458.33381401913 1019.95555586542 487.73381401913 1041.85555586542 C 500.83381401913 1051.65555586542 515.53381401913 1058.05555586542 531.53381401913 1061.05555586542 C 546.93381401913 1063.95555586542 563.83381401913 1065.85555586542 579.53381401913 1063.55555586542 C 637.13381401913 1055.05555586542 667.23381401913 1011.35555586542 675.13381401913 986.55555586542 C 679.43381401913 973.05555586542 681.63381401913 961.15555586542 682.63381401913 947.15555586542 C 684.73381401913 916.35555586542 670.53381401913 883.55555586542 650.53381401913 860.85555586542 Z M 327.23381401913 876.45555586542 C 321.73381401913 876.05555586542 315.93381401913 875.45555586542 310.43381401913 874.15555586542 C 308.63381401913 873.75555586542 307.43381401913 873.45555586542 306.23381401913 873.05555586542 C 303.73381401913 872.25555586542 301.93381401913 871.25555586542 300.93381401913 870.15555586542 C 300.23381401913 869.35555586542 299.23381401913 867.65555586542 300.33381401913 864.35555586542 C 300.83381401913 862.85555586542 301.63381401913 861.25555586542 303.93381401913 860.75555586542 C 305.43381401913 860.45555586542 307.33381401913 860.65555586542 309.93381401913 861.55555586542 C 311.03381401913 861.95555586542 312.33381401913 862.35555586542 314.03381401913 863.05555586542 C 319.23381401913 865.25555586542 324.33381401913 868.15555586542 328.93381401913 871.05555586542 C 333.23381401913 873.75555586542 332.13381401913 876.85555586542 327.23381401913 876.45555586542 Z M 644.03381401913 921.35555586542 C 644.03381401913 921.35555586542 644.13381401913 921.35555586542 644.13381401913 921.25555586542 C 645.43381401913 919.25555586542 648.23381401913 918.55555586542 650.53381401913 918.75555586542 C 650.83381401913 918.75555586542 651.73381401913 918.85555586542 651.93381401913 919.15555586542 L 652.03381401913 919.35555586542 C 652.03381401913 919.45555586542 651.93381401913 919.65555586542 651.73381401913 919.75555586542 C 651.03381401913 920.25555586542 650.13381401913 920.35555586542 649.33381401913 920.45555586542 C 649.23381401913 920.35555586542 649.13381401913 920.35555586542 649.03381401913 920.45555586542 C 647.53381401913 921.25555586542 645.73381401913 921.85555586542 644.03381401913 921.35555586542 C 644.03381401913 921.35555586542 644.03381401913 921.35555586542 644.03381401913 921.35555586542 Z M 513.73381401913 864.75555586542 C 515.43381401913 863.45555586542 526.53381401913 870.15555586542 540.63381401913 865.55555586542 C 542.13381401913 865.05555586542 544.73381401913 864.35555586542 546.43381401913 863.15555586542 C 548.83381401913 861.45555586542 550.13381401913 859.05555586542 551.73381401913 857.45555586542 C 553.43381401913 855.75555586542 555.43381401913 853.65555586542 558.53381401913 852.35555586542 C 557.73381401913 853.25555586542 555.93381401913 855.55555586542 555.53381401913 856.75555586542 C 555.03381401913 858.35555586542 553.73381401913 862.05555586542 556.23381401913 863.85555586542 C 557.53381401913 864.75555586542 560.23381401913 865.25555586542 561.03381401913 866.75555586542 C 560.23381401913 866.45555586542 558.43381401913 867.35555586542 558.03381401913 868.15555586542 C 555.43381401913 872.55555586542 560.83381401913 876.75555586542 562.73381401913 877.65555586542 C 556.93381401913 880.15555586542 551.53381401913 871.35555586542 544.83381401913 869.65555586542 C 542.93381401913 869.15555586542 540.13381401913 869.65555586542 538.03381401913 869.75555586542 C 531.53381401913 870.05555586542 523.53381401913 870.85555586542 517.33381401913 868.85555586542 C 513.43381401913 867.45555586542 513.13381401913 866.05555586542 513.73381401913 864.75555586542 Z M 548.53381401913 1000.25555586542 C 548.53381401913 1005.45555586542 548.23381401913 1011.15555586542 548.03381401913 1016.45555586542 C 544.93381401913 1017.65555586542 541.53381401913 1018.55555586542 538.23381401913 1017.95555586542 C 534.83381401913 1017.35555586542 531.73381401913 1015.65555586542 529.43381401913 1013.05555586542 C 524.13381401913 1007.25555586542 524.33381401913 998.45555586542 527.53381401913 991.65555586542 C 530.53381401913 985.25555586542 536.43381401913 981.05555586542 541.73381401913 976.65555586542 C 544.23381401913 974.55555586542 546.73381401913 972.25555586542 548.73381401913 969.65555586542 C 549.13381401913 972.05555586542 548.93381401913 974.45555586542 548.63381401913 976.85555586542 C 548.33381401913 979.25555586542 547.93381401913 981.65555586542 548.03381401913 984.05555586542 C 548.23381401913 989.55555586542 548.53381401913 994.85555586542 548.53381401913 1000.25555586542 Z M 493.43381401913 998.15555586542 C 492.83381401913 998.35555586542 491.63381401913 998.75555586542 491.33381401913 998.15555586542 C 490.73381401913 997.05555586542 491.23381401913 994.35555586542 490.83381401913 993.75555586542 C 477.43381401913 978.95555586542 471.73381401913 962.25555586542 481.43381401913 946.15555586542 C 482.93381401913 948.85555586542 485.63381401913 950.35555586542 487.53381401913 952.75555586542 C 492.53381401913 958.95555586542 494.03381401913 966.85555586542 494.13381401913 973.45555586542 C 494.23381401913 981.65555586542 493.43381401913 984.85555586542 493.03381401913 987.45555586542 C 494.93381401913 982.95555586542 495.23381401913 975.35555586542 495.03381401913 971.75555586542 C 497.33381401913 967.05555586542 499.93381401913 960.75555586542 505.03381401913 956.55555586542 C 509.03381401913 953.25555586542 514.43381401913 952.95555586542 518.03381401913 950.65555586542 C 517.03381401913 962.05555586542 518.73381401913 972.15555586542 505.53381401913 982.95555586542 C 499.63381401913 987.95555586542 489.33381401913 990.05555586542 493.43381401913 998.15555586542 Z M 517.53381401913 920.05555586542 C 517.23381401913 918.85555586542 517.13381401913 917.55555586542 517.13381401913 916.15555586542 C 517.13381401913 915.15555586542 517.13381401913 914.05555586542 517.33381401913 912.85555586542 C 517.43381401913 912.05555586542 517.63381401913 911.35555586542 517.73381401913 910.55555586542 C 517.83381401913 910.15555586542 517.93381401913 909.75555586542 517.93381401913 909.35555586542 C 518.03381401913 908.95555586542 518.03381401913 908.55555586542 518.13381401913 908.15555586542 C 518.23381401913 907.35555586542 518.43381401913 906.45555586542 518.63381401913 905.65555586542 C 518.83381401913 904.65555586542 519.23381401913 903.65555586542 519.73381401913 902.55555586542 C 519.83381401913 902.35555586542 519.83381401913 902.25555586542 519.93381401913 902.05555586542 C 520.63381401913 900.55555586542 521.33381401913 898.95555586542 521.43381401913 897.25555586542 C 521.53381401913 897.15555586542 521.73381401913 897.15555586542 521.83381401913 897.05555586542 C 522.23381401913 896.85555586542 522.63381401913 896.65555586542 523.03381401913 896.35555586542 C 523.13381401913 897.25555586542 523.13381401913 898.25555586542 523.13381401913 899.15555586542 C 523.13381401913 899.35555586542 523.13381401913 899.55555586542 523.13381401913 899.75555586542 C 523.13381401913 900.85555586542 523.13381401913 901.95555586542 523.33381401913 903.05555586542 C 523.63381401913 904.35555586542 524.03381401913 905.65555586542 524.53381401913 906.85555586542 C 524.93381401913 907.95555586542 525.33381401913 908.95555586542 525.53381401913 910.05555586542 C 526.03381401913 912.25555586542 526.33381401913 914.65555586542 526.33381401913 917.25555586542 C 526.33381401913 918.45555586542 526.33381401913 919.65555586542 526.23381401913 920.85555586542 C 526.23381401913 921.45555586542 526.13381401913 922.05555586542 526.03381401913 922.65555586542 C 525.93381401913 923.05555586542 525.93381401913 923.45555586542 525.83381401913 923.95555586542 C 525.83381401913 924.15555586542 525.83381401913 924.25555586542 525.83381401913 924.45555586542 C 523.83381401913 923.05555586542 521.83381401913 921.75555586542 519.63381401913 920.75555586542 C 519.03381401913 920.55555586542 518.23381401913 920.25555586542 517.53381401913 920.05555586542 Z M 528.83381401913 897.95555586542 C 529.33381401913 898.75555586542 529.63381401913 899.55555586542 530.03381401913 900.45555586542 C 530.13381401913 900.65555586542 530.13381401913 900.75555586542 530.23381401913 900.95555586542 C 530.63381401913 902.05555586542 531.23381401913 903.15555586542 531.83381401913 904.35555586542 C 532.43381401913 905.45555586542 533.03381401913 906.55555586542 533.73381401913 907.75555586542 C 534.03381401913 908.25555586542 534.33381401913 908.65555586542 534.53381401913 909.15555586542 C 534.93381401913 909.85555586542 535.33381401913 910.45555586542 535.73381401913 911.15555586542 L 536.03381401913 911.65555586542 C 536.63381401913 912.55555586542 537.23381401913 913.55555586542 537.73381401913 914.45555586542 L 537.93381401913 914.85555586542 C 538.43381401913 915.75555586542 539.03381401913 916.65555586542 539.63381401913 917.55555586542 C 540.33381401913 918.45555586542 541.03381401913 919.25555586542 541.83381401913 920.05555586542 C 541.93381401913 920.15555586542 542.03381401913 920.25555586542 542.13381401913 920.35555586542 C 542.03381401913 920.35555586542 542.03381401913 920.35555586542 541.93381401913 920.35555586542 C 542.53381401913 921.05555586542 543.03381401913 921.75555586542 543.23381401913 922.65555586542 C 543.63381401913 923.85555586542 543.73381401913 925.25555586542 543.83381401913 926.55555586542 C 543.93381401913 927.75555586542 544.13381401913 928.95555586542 544.23381401913 930.15555586542 C 544.23381401913 931.05555586542 544.23381401913 931.95555586542 543.93381401913 932.75555586542 C 543.53381401913 933.55555586542 542.83381401913 934.15555586542 542.03381401913 934.45555586542 C 540.13381401913 935.15555586542 537.93381401913 935.25555586542 536.03381401913 934.35555586542 C 534.33381401913 933.45555586542 533.03381401913 932.05555586542 531.73381401913 930.55555586542 C 530.43381401913 928.95555586542 529.13381401913 927.25555586542 527.43381401913 925.95555586542 C 527.33381401913 925.85555586542 527.23381401913 925.75555586542 527.13381401913 925.65555586542 C 527.13381401913 925.45555586542 527.23381401913 925.15555586542 527.23381401913 924.95555586542 C 527.33381401913 924.35555586542 527.33381401913 923.75555586542 527.43381401913 923.15555586542 C 527.73381401913 920.95555586542 527.83381401913 918.55555586542 527.73381401913 915.95555586542 C 527.63381401913 913.25555586542 527.23381401913 910.85555586542 526.63381401913 908.85555586542 C 526.43381401913 907.95555586542 526.03381401913 907.15555586542 525.73381401913 906.25555586542 C 525.13381401913 904.75555586542 524.63381401913 903.35555586542 524.53381401913 901.75555586542 C 524.53381401913 901.05555586542 524.43381401913 900.25555586542 524.43381401913 899.55555586542 C 524.43381401913 898.15555586542 524.33381401913 896.65555586542 524.13381401913 895.15555586542 C 524.33381401913 894.85555586542 524.43381401913 894.55555586542 524.63381401913 894.25555586542 C 526.33381401913 895.25555586542 527.83381401913 896.45555586542 528.83381401913 897.95555586542 Z M 525.33381401913 892.65555586542 C 525.83381401913 891.15555586542 526.13381401913 889.65555586542 526.83381401913 888.25555586542 C 527.13381401913 887.65555586542 527.43381401913 886.95555586542 528.03381401913 886.65555586542 C 528.63381401913 886.25555586542 529.13381401913 886.45555586542 529.63381401913 886.85555586542 C 530.43381401913 887.45555586542 531.03381401913 888.25555586542 531.73381401913 888.95555586542 C 532.13381401913 889.35555586542 532.53381401913 889.75555586542 532.83381401913 890.25555586542 C 533.13381401913 890.65555586542 533.43381401913 891.15555586542 534.03381401913 891.05555586542 C 534.23381401913 891.05555586542 534.43381401913 890.95555586542 534.53381401913 890.95555586542 C 535.93381401913 892.95555586542 537.03381401913 895.05555586542 538.03381401913 897.15555586542 C 539.03381401913 899.05555586542 540.03381401913 900.95555586542 541.13381401913 902.75555586542 C 542.13381401913 904.25555586542 543.13381401913 905.65555586542 544.23381401913 906.95555586542 C 544.63381401913 907.45555586542 545.03381401913 907.95555586542 545.43381401913 908.45555586542 C 546.63381401913 910.05555586542 548.13381401913 912.05555586542 549.23381401913 914.05555586542 C 550.23381401913 915.85555586542 550.93381401913 917.65555586542 551.33381401913 919.45555586542 C 551.63381401913 920.65555586542 551.83381401913 921.95555586542 551.93381401913 923.25555586542 C 551.23381401913 922.75555586542 550.63381401913 922.35555586542 549.93381401913 921.95555586542 C 548.73381401913 921.25555586542 547.43381401913 920.75555586542 546.13381401913 920.45555586542 C 545.53381401913 920.35555586542 544.83381401913 920.25555586542 544.23381401913 920.25555586542 C 543.83381401913 919.75555586542 543.33381401913 919.25555586542 542.93381401913 918.85555586542 C 542.03381401913 917.85555586542 541.03381401913 916.85555586542 540.33381401913 915.75555586542 C 539.93381401913 915.15555586542 539.53381401913 914.45555586542 539.13381401913 913.75555586542 C 538.93381401913 913.35555586542 538.63381401913 912.85555586542 538.33381401913 912.45555586542 C 537.93381401913 911.85555586542 537.53381401913 911.25555586542 537.23381401913 910.65555586542 C 536.93381401913 910.15555586542 536.53381401913 909.65555586542 536.23381401913 909.15555586542 L 536.13381401913 908.95555586542 C 534.83381401913 906.85555586542 533.53381401913 904.75555586542 532.43381401913 902.55555586542 C 532.13381401913 901.95555586542 531.83381401913 901.25555586542 531.53381401913 900.55555586542 C 530.93381401913 899.15555586542 530.33381401913 897.65555586542 529.33381401913 896.35555586542 C 528.23381401913 894.95555586542 526.73381401913 893.85555586542 525.33381401913 892.75555586542 L 525.33381401913 892.65555586542 C 525.43381401913 892.65555586542 525.43381401913 892.65555586542 525.33381401913 892.65555586542 Z M 520.03381401913 992.75555586542 C 520.73381401913 988.85555586542 522.33381401913 985.35555586542 525.13381401913 982.55555586542 C 527.83381401913 979.85555586542 530.73381401913 978.65555586542 534.13381401913 977.15555586542 C 535.93381401913 976.35555586542 538.73381401913 975.25555586542 542.83381401913 974.15555586542 C 538.13381401913 977.65555586542 530.53381401913 981.95555586542 526.53381401913 990.15555586542 C 525.83381401913 991.65555586542 524.33381401913 994.45555586542 524.13381401913 999.95555586542 C 524.03381401913 1003.55555586542 524.73381401913 1006.95555586542 527.23381401913 1011.35555586542 C 523.23381401913 1010.35555586542 520.53381401913 1005.05555586542 519.93381401913 1002.05555586542 C 519.43381401913 998.95555586542 519.53381401913 995.55555586542 520.03381401913 992.75555586542 Z M 543.63381401913 971.55555586542 C 546.53381401913 969.25555586542 548.03381401913 968.15555586542 550.43381401913 965.65555586542 C 553.53381401913 962.55555586542 555.13381401913 954.45555586542 556.83381401913 951.95555586542 C 557.33381401913 954.55555586542 555.33381401913 970.45555586542 554.93381401913 972.25555586542 C 554.63381401913 973.55555586542 550.63381401913 988.25555586542 550.33381401913 989.65555586542 C 549.83381401913 984.95555586542 550.43381401913 982.65555586542 550.63381401913 979.15555586542 C 550.83381401913 975.05555586542 551.13381401913 971.55555586542 550.93381401913 967.15555586542 C 550.93381401913 967.15555586542 544.93381401913 971.35555586542 543.63381401913 971.55555586542 Z M 550.03381401913 1001.15555586542 C 550.83381401913 996.15555586542 552.03381401913 991.15555586542 553.53381401913 986.35555586542 C 554.93381401913 981.65555586542 556.33381401913 976.85555586542 557.43381401913 971.95555586542 C 558.53381401913 967.25555586542 559.13381401913 962.35555586542 559.03381401913 957.55555586542 C 560.13381401913 959.15555586542 560.83381401913 961.05555586542 561.33381401913 962.95555586542 C 561.93381401913 965.05555586542 562.43381401913 967.15555586542 563.23381401913 969.25555586542 C 565.03381401913 973.65555586542 568.43381401913 977.25555586542 571.73381401913 980.55555586542 C 572.03381401913 980.85555586542 572.33381401913 981.15555586542 572.53381401913 981.45555586542 C 572.53381401913 981.45555586542 572.53381401913 981.45555586542 572.53381401913 981.45555586542 C 574.73381401913 984.15555586542 576.73381401913 986.95555586542 578.33381401913 990.05555586542 C 580.23381401913 993.75555586542 581.63381401913 997.65555586542 582.03381401913 1001.85555586542 C 582.43381401913 1005.95555586542 581.53381401913 1010.05555586542 579.33381401913 1013.55555586542 C 578.53381401913 1014.85555586542 577.53381401913 1016.05555586542 576.23381401913 1017.05555586542 C 575.13381401913 1017.85555586542 573.93381401913 1018.45555586542 572.63381401913 1018.95555586542 C 569.73381401913 1020.05555586542 558.33381401913 1021.55555586542 549.63381401913 1016.15555586542 C 549.63381401913 1011.65555586542 549.43381401913 1005.55555586542 550.03381401913 1001.15555586542 Z M 580.63381401913 989.25555586542 C 576.83381401913 981.55555586542 570.03381401913 977.65555586542 567.13381401913 968.95555586542 C 571.13381401913 972.45555586542 572.83381401913 974.35555586542 576.43381401913 976.85555586542 C 580.13381401913 979.45555586542 583.43381401913 980.95555586542 586.23381401913 984.15555586542 C 588.83381401913 987.05555586542 589.93381401913 991.05555586542 590.43381401913 994.85555586542 C 590.83381401913 998.35555586542 590.53381401913 1001.95555586542 589.23381401913 1005.25555586542 C 587.63381401913 1009.35555586542 584.63381401913 1012.55555586542 580.53381401913 1014.15555586542 C 582.83381401913 1011.05555586542 586.33381401913 1000.75555586542 580.63381401913 989.25555586542 Z M 581.53381401913 924.65555586542 C 580.63381401913 925.75555586542 579.43381401913 926.45555586542 578.43381401913 927.35555586542 C 577.83381401913 927.85555586542 577.23381401913 928.25555586542 576.83381401913 928.85555586542 C 576.33381401913 929.45555586542 575.83381401913 930.15555586542 575.43381401913 930.85555586542 C 574.83381401913 931.75555586542 574.23381401913 932.75555586542 573.53381401913 933.75555586542 C 573.53381401913 933.35555586542 573.63381401913 932.95555586542 573.63381401913 932.55555586542 C 573.83381401913 930.05555586542 573.83381401913 927.65555586542 573.53381401913 925.35555586542 C 573.53381401913 925.05555586542 573.43381401913 924.65555586542 573.43381401913 924.35555586542 C 573.33381401913 923.55555586542 573.23381401913 922.75555586542 573.23381401913 921.85555586542 C 573.23381401913 920.75555586542 573.33381401913 919.55555586542 573.53381401913 918.35555586542 C 573.93381401913 916.35555586542 574.73381401913 914.35555586542 576.03381401913 911.75555586542 C 576.23381401913 911.35555586542 576.43381401913 911.05555586542 576.63381401913 910.65555586542 C 576.93381401913 910.85555586542 577.23381401913 911.05555586542 577.63381401913 911.35555586542 C 578.63381401913 912.05555586542 579.63381401913 912.95555586542 580.33381401913 913.95555586542 C 581.13381401913 915.05555586542 581.73381401913 916.25555586542 582.23381401913 917.45555586542 C 583.03381401913 919.85555586542 583.33381401913 922.55555586542 581.53381401913 924.65555586542 Z M 571.53381401913 922.25555586542 C 571.53381401913 923.05555586542 571.63381401913 923.85555586542 571.73381401913 924.55555586542 C 571.83381401913 924.95555586542 571.83381401913 925.45555586542 571.93381401913 925.85555586542 C 572.03381401913 926.95555586542 572.13381401913 928.05555586542 572.13381401913 929.25555586542 C 572.13381401913 931.65555586542 571.93381401913 933.95555586542 571.43381401913 936.15555586542 C 571.33381401913 936.25555586542 571.13381401913 936.45555586542 571.03381401913 936.55555586542 C 569.53381401913 938.05555586542 567.63381401913 939.25555586542 565.43381401913 938.45555586542 C 563.43381401913 937.75555586542 562.03381401913 936.05555586542 560.93381401913 934.35555586542 C 561.13381401913 933.85555586542 561.33381401913 933.25555586542 561.43381401913 932.75555586542 C 562.03381401913 931.05555586542 562.43381401913 929.45555586542 562.83381401913 928.05555586542 C 562.93381401913 927.65555586542 563.03381401913 927.25555586542 563.13381401913 926.95555586542 C 563.43381401913 925.55555586542 563.73381401913 924.15555586542 564.53381401913 922.95555586542 C 564.93381401913 922.45555586542 565.33381401913 921.85555586542 565.73381401913 921.35555586542 C 566.03381401913 920.95555586542 566.33381401913 920.65555586542 566.63381401913 920.25555586542 C 567.33381401913 919.25555586542 568.03381401913 918.35555586542 568.63381401913 917.35555586542 C 570.63381401913 914.15555586542 571.73381401913 910.95555586542 572.03381401913 907.75555586542 C 572.63381401913 908.15555586542 573.33381401913 908.65555586542 573.93381401913 909.05555586542 C 574.33381401913 909.35555586542 574.73381401913 909.55555586542 575.13381401913 909.85555586542 C 573.23381401913 913.45555586542 571.33381401913 917.55555586542 571.53381401913 922.25555586542 Z M 566.03381401913 918.45555586542 C 565.43381401913 919.25555586542 564.73381401913 920.25555586542 563.83381401913 921.25555586542 C 563.13381401913 922.05555586542 562.63381401913 922.95555586542 562.23381401913 923.85555586542 C 561.93381401913 924.65555586542 561.73381401913 925.45555586542 561.63381401913 926.25555586542 L 561.53381401913 926.45555586542 C 561.33381401913 927.35555586542 561.13381401913 928.25555586542 560.93381401913 929.05555586542 C 560.63381401913 930.15555586542 560.33381401913 931.35555586542 559.93381401913 932.45555586542 C 559.63381401913 931.85555586542 559.33381401913 931.25555586542 558.93381401913 930.75555586542 C 558.23381401913 929.55555586542 557.43381401913 928.45555586542 556.53381401913 927.35555586542 C 556.33381401913 927.05555586542 556.03381401913 926.75555586542 555.83381401913 926.55555586542 C 556.03381401913 925.05555586542 556.43381401913 923.55555586542 556.83381401913 921.95555586542 C 557.03381401913 921.35555586542 557.13381401913 920.75555586542 557.33381401913 920.05555586542 C 557.53381401913 919.35555586542 557.73381401913 918.75555586542 557.83381401913 918.05555586542 L 557.93381401913 917.75555586542 C 558.13381401913 917.05555586542 558.33381401913 916.35555586542 558.63381401913 915.75555586542 C 559.33381401913 914.65555586542 560.43381401913 913.75555586542 561.73381401913 912.75555586542 C 562.03381401913 912.55555586542 562.43381401913 912.25555586542 562.73381401913 912.05555586542 C 563.63381401913 911.35555586542 564.53381401913 910.75555586542 565.43381401913 909.95555586542 C 567.03381401913 908.55555586542 567.83381401913 907.05555586542 567.93381401913 905.55555586542 C 568.03381401913 905.55555586542 568.13381401913 905.55555586542 568.23381401913 905.65555586542 C 568.93381401913 905.85555586542 569.53381401913 906.15555586542 570.13381401913 906.45555586542 C 570.23381401913 906.55555586542 570.43381401913 906.65555586542 570.53381401913 906.75555586542 C 570.43381401913 910.65555586542 568.93381401913 914.45555586542 566.03381401913 918.45555586542 Z M 562.13381401913 910.75555586542 C 561.93381401913 910.85555586542 561.73381401913 911.05555586542 561.63381401913 911.15555586542 L 561.63381401913 911.15555586542 C 560.43381401913 912.05555586542 559.13381401913 912.95555586542 558.13381401913 914.15555586542 C 557.63381401913 914.75555586542 557.23381401913 915.35555586542 556.93381401913 915.95555586542 C 556.63381401913 916.65555586542 556.43381401913 917.45555586542 556.23381401913 918.15555586542 C 556.13381401913 918.45555586542 556.13381401913 918.75555586542 556.03381401913 919.15555586542 L 555.83381401913 919.95555586542 C 555.33381401913 921.75555586542 554.83381401913 923.55555586542 554.53381401913 925.35555586542 C 554.33381401913 925.15555586542 554.03381401913 924.95555586542 553.83381401913 924.75555586542 C 553.73381401913 922.65555586542 553.43381401913 920.55555586542 552.93381401913 918.65555586542 C 552.43381401913 916.65555586542 551.53381401913 914.55555586542 550.13381401913 912.35555586542 C 548.93381401913 910.35555586542 547.43381401913 908.45555586542 546.03381401913 906.65555586542 C 544.63381401913 904.85555586542 543.13381401913 902.95555586542 541.93381401913 900.95555586542 C 541.03381401913 899.55555586542 540.33381401913 897.95555586542 539.53381401913 896.55555586542 C 538.53381401913 894.55555586542 537.43381401913 892.45555586542 536.13381401913 890.45555586542 C 536.63381401913 890.15555586542 537.13381401913 889.75555586542 537.53381401913 889.45555586542 C 538.23381401913 888.85555586542 538.93381401913 888.25555586542 539.83381401913 887.75555586542 C 539.93381401913 887.75555586542 540.03381401913 887.65555586542 540.03381401913 887.65555586542 C 541.23381401913 889.35555586542 542.13381401913 891.25555586542 543.03381401913 893.25555586542 C 543.73381401913 894.75555586542 544.43381401913 896.25555586542 545.23381401913 897.65555586542 C 546.33381401913 899.45555586542 547.73381401913 901.05555586542 549.63381401913 902.45555586542 C 551.53381401913 903.95555586542 553.63381401913 904.85555586542 555.63381401913 905.25555586542 C 556.23381401913 905.35555586542 556.93381401913 905.45555586542 557.63381401913 905.45555586542 C 557.63381401913 905.45555586542 557.63381401913 905.45555586542 557.63381401913 905.45555586542 C 558.83381401913 905.45555586542 560.13381401913 905.25555586542 561.33381401913 904.85555586542 C 561.73381401913 904.95555586542 562.23381401913 905.05555586542 562.63381401913 905.05555586542 C 563.23381401913 905.15555586542 563.83381401913 905.15555586542 564.43381401913 905.15555586542 C 564.93381401913 905.25555586542 565.43381401913 905.35555586542 566.03381401913 905.45555586542 C 566.13381401913 905.45555586542 566.33381401913 905.45555586542 566.53381401913 905.55555586542 C 566.33381401913 907.75555586542 564.13381401913 909.35555586542 562.13381401913 910.75555586542 Z M 561.73381401913 900.45555586542 C 561.63381401913 900.75555586542 561.43381401913 901.05555586542 561.33381401913 901.25555586542 C 561.03381401913 901.75555586542 560.63381401913 902.25555586542 560.33381401913 902.85555586542 C 560.23381401913 903.05555586542 560.13381401913 903.35555586542 560.13381401913 903.55555586542 C 559.23381401913 903.75555586542 558.43381401913 903.85555586542 557.53381401913 903.85555586542 C 557.03381401913 903.85555586542 556.63381401913 903.85555586542 556.13381401913 903.75555586542 C 554.33381401913 903.45555586542 552.43381401913 902.65555586542 550.53381401913 901.25555586542 C 548.73381401913 899.95555586542 547.33381401913 898.35555586542 546.23381401913 896.45555586542 C 545.43381401913 895.15555586542 544.83381401913 893.75555586542 544.23381401913 892.35555586542 C 544.03381401913 891.85555586542 543.73381401913 891.35555586542 543.53381401913 890.85555586542 C 542.93381401913 889.65555586542 542.33381401913 888.35555586542 541.43381401913 887.05555586542 C 543.03381401913 886.95555586542 544.63381401913 887.65555586542 546.03381401913 888.35555586542 C 546.33381401913 888.55555586542 546.73381401913 888.75555586542 547.03381401913 888.95555586542 C 547.03381401913 889.05555586542 547.03381401913 889.05555586542 547.13381401913 889.15555586542 C 550.73381401913 894.65555586542 556.03381401913 898.75555586542 561.73381401913 900.45555586542 Z M 550.33381401913 890.85555586542 C 551.53381401913 891.45555586542 552.83381401913 891.65555586542 554.23381401913 891.75555586542 C 556.73381401913 891.85555586542 559.83381401913 891.75555586542 561.63381401913 893.85555586542 C 562.83381401913 895.25555586542 562.73381401913 897.35555586542 562.33381401913 899.05555586542 C 557.73381401913 897.65555586542 553.53381401913 894.75555586542 550.33381401913 890.85555586542 Z M 501.23381401913 881.15555586542 C 504.03381401913 880.35555586542 506.73381401913 881.25555586542 509.33381401913 882.35555586542 C 509.93381401913 882.55555586542 510.33381401913 882.85555586542 510.83381401913 883.35555586542 C 511.13381401913 883.65555586542 511.23381401913 884.15555586542 511.43381401913 884.45555586542 C 511.63381401913 884.95555586542 511.83381401913 885.25555586542 512.43381401913 885.25555586542 C 512.93381401913 885.25555586542 513.43381401913 885.05555586542 513.93381401913 884.95555586542 C 514.93381401913 884.75555586542 515.83381401913 884.45555586542 516.73381401913 884.45555586542 C 517.73381401913 884.45555586542 518.83381401913 884.55555586542 519.83381401913 884.85555586542 C 521.63381401913 885.45555586542 522.83381401913 886.85555586542 523.03381401913 888.85555586542 C 523.23381401913 890.65555586542 522.63381401913 892.15555586542 521.53381401913 893.45555586542 C 520.23381401913 892.55555586542 518.83381401913 891.85555586542 517.23381401913 891.25555586542 C 515.53381401913 890.55555586542 513.83381401913 889.95555586542 512.23381401913 889.35555586542 C 511.63381401913 889.15555586542 511.03381401913 888.95555586542 510.43381401913 888.65555586542 C 509.03381401913 888.15555586542 507.63381401913 887.45555586542 506.33381401913 886.85555586542 C 505.43381401913 886.45555586542 504.53381401913 885.95555586542 503.53381401913 885.55555586542 C 501.23381401913 884.55555586542 499.23381401913 883.85555586542 497.33381401913 883.45555586542 C 498.43381401913 882.55555586542 499.73381401913 881.65555586542 501.23381401913 881.15555586542 Z M 495.13381401913 886.35555586542 C 495.43381401913 885.85555586542 495.83381401913 885.45555586542 496.13381401913 884.95555586542 C 497.83381401913 885.25555586542 499.63381401913 885.85555586542 501.83381401913 886.75555586542 C 502.93381401913 887.15555586542 504.03381401913 887.65555586542 505.23381401913 888.25555586542 C 505.53381401913 888.45555586542 505.93381401913 888.55555586542 506.23381401913 888.75555586542 C 506.93381401913 889.15555586542 507.73381401913 889.45555586542 508.43381401913 889.75555586542 C 509.43381401913 890.15555586542 510.53381401913 890.55555586542 511.53381401913 890.85555586542 C 511.73381401913 890.95555586542 512.03381401913 891.05555586542 512.23381401913 891.05555586542 C 513.03381401913 891.35555586542 513.83381401913 891.65555586542 514.53381401913 891.95555586542 C 514.83381401913 892.05555586542 515.23381401913 892.25555586542 515.53381401913 892.35555586542 L 515.93381401913 892.45555586542 C 517.43381401913 893.05555586542 519.03381401913 893.65555586542 520.33381401913 894.55555586542 C 519.43381401913 895.35555586542 518.33381401913 896.05555586542 517.43381401913 896.85555586542 C 516.43381401913 896.85555586542 515.43381401913 896.75555586542 514.13381401913 896.75555586542 C 513.43381401913 896.75555586542 512.73381401913 896.75555586542 512.03381401913 896.75555586542 C 511.63381401913 896.75555586542 511.23381401913 896.75555586542 510.73381401913 896.75555586542 L 510.13381401913 896.75555586542 C 509.73381401913 896.75555586542 509.33381401913 896.75555586542 508.93381401913 896.75555586542 C 507.13381401913 896.75555586542 505.33381401913 896.75555586542 503.53381401913 896.35555586542 C 499.53381401913 895.65555586542 495.83381401913 893.55555586542 492.23381401913 891.65555586542 C 492.13381401913 891.65555586542 492.13381401913 891.55555586542 492.03381401913 891.55555586542 C 493.03381401913 889.85555586542 493.93381401913 888.05555586542 495.13381401913 886.35555586542 Z M 490.13381401913 897.45555586542 C 490.53381401913 896.15555586542 491.03381401913 894.85555586542 491.53381401913 893.55555586542 C 491.53381401913 893.45555586542 491.63381401913 893.25555586542 491.73381401913 893.15555586542 C 495.43381401913 895.15555586542 499.23381401913 897.25555586542 503.53381401913 898.05555586542 C 506.03381401913 898.55555586542 508.63381401913 898.35555586542 511.13381401913 898.45555586542 C 511.93381401913 898.45555586542 512.83381401913 898.55555586542 513.63381401913 898.45555586542 C 515.13381401913 898.45555586542 516.63381401913 898.45555586542 518.13381401913 898.35555586542 C 518.73381401913 898.25555586542 519.33381401913 898.05555586542 519.83381401913 897.85555586542 C 519.93381401913 898.95555586542 519.03381401913 900.35555586542 518.63381401913 901.45555586542 C 518.53381401913 901.75555586542 518.33381401913 902.05555586542 518.23381401913 902.25555586542 C 517.43381401913 904.15555586542 517.03381401913 906.15555586542 516.73381401913 908.05555586542 C 516.63381401913 908.45555586542 516.53381401913 908.95555586542 516.53381401913 909.35555586542 C 516.43381401913 909.65555586542 516.43381401913 909.95555586542 516.33381401913 910.35555586542 C 516.13381401913 911.05555586542 516.03381401913 911.85555586542 515.93381401913 912.65555586542 C 515.83381401913 913.75555586542 515.73381401913 914.95555586542 515.73381401913 916.25555586542 C 515.73381401913 917.35555586542 515.83381401913 918.45555586542 516.03381401913 919.55555586542 C 515.73381401913 919.45555586542 515.53381401913 919.45555586542 515.23381401913 919.35555586542 C 514.63381401913 919.25555586542 514.03381401913 919.15555586542 513.43381401913 919.15555586542 C 512.63381401913 917.55555586542 511.73381401913 915.95555586542 510.63381401913 914.35555586542 C 509.13381401913 912.25555586542 507.53381401913 910.75555586542 505.63381401913 909.65555586542 C 504.23381401913 908.85555586542 502.73381401913 908.05555586542 501.23381401913 907.45555586542 C 500.73381401913 907.25555586542 500.23381401913 906.95555586542 499.83381401913 906.75555586542 C 498.13381401913 905.95555586542 496.13381401913 904.95555586542 494.23381401913 903.65555586542 C 492.23381401913 902.35555586542 490.63381401913 900.95555586542 489.53381401913 899.45555586542 C 489.63381401913 898.75555586542 489.93381401913 898.15555586542 490.13381401913 897.45555586542 Z M 486.13381401913 906.35555586542 C 486.83381401913 904.85555586542 487.53381401913 903.45555586542 488.23381401913 902.05555586542 C 488.43381401913 901.75555586542 488.53381401913 901.35555586542 488.73381401913 901.05555586542 C 491.23381401913 904.05555586542 494.73381401913 906.05555586542 498.03381401913 907.65555586542 C 498.83381401913 908.05555586542 499.63381401913 908.45555586542 500.43381401913 908.75555586542 C 501.53381401913 909.25555586542 502.73381401913 909.85555586542 503.83381401913 910.45555586542 C 504.93381401913 911.05555586542 505.83381401913 911.55555586542 506.53381401913 912.15555586542 C 507.43381401913 912.95555586542 508.23381401913 913.85555586542 508.93381401913 914.65555586542 C 509.93381401913 915.95555586542 510.83381401913 917.45555586542 511.63381401913 919.05555586542 C 511.23381401913 919.05555586542 510.73381401913 919.05555586542 510.33381401913 919.05555586542 C 508.73381401913 919.05555586542 507.03381401913 919.05555586542 505.53381401913 919.55555586542 C 504.93381401913 919.75555586542 504.23381401913 920.05555586542 503.63381401913 920.35555586542 C 502.03381401913 920.05555586542 500.33381401913 919.65555586542 498.53381401913 918.95555586542 C 497.53381401913 918.65555586542 496.53381401913 918.25555586542 495.33381401913 917.75555586542 L 495.23381401913 917.75555586542 C 494.23381401913 917.35555586542 493.33381401913 916.95555586542 492.43381401913 916.45555586542 C 490.53381401913 915.25555586542 489.03381401913 913.55555586542 487.43381401913 911.85555586542 C 486.63381401913 910.95555586542 485.83381401913 910.05555586542 484.93381401913 909.15555586542 C 485.23381401913 908.15555586542 485.63381401913 907.25555586542 486.13381401913 906.35555586542 Z M 484.03381401913 910.55555586542 C 484.03381401913 910.55555586542 484.03381401913 910.55555586542 484.03381401913 910.55555586542 C 484.83381401913 911.25555586542 485.53381401913 912.05555586542 486.23381401913 912.75555586542 C 487.83381401913 914.55555586542 489.53381401913 916.45555586542 491.63381401913 917.75555586542 C 492.43381401913 918.25555586542 493.33381401913 918.55555586542 494.13381401913 918.95555586542 L 494.43381401913 919.05555586542 C 495.53381401913 919.55555586542 496.73381401913 919.95555586542 497.83381401913 920.35555586542 C 499.83381401913 921.05555586542 501.83381401913 921.55555586542 503.63381401913 921.85555586542 C 504.93381401913 922.45555586542 506.03381401913 923.45555586542 506.93381401913 924.65555586542 C 508.33381401913 926.45555586542 509.93381401913 928.35555586542 510.63381401913 930.55555586542 C 510.93381401913 931.55555586542 511.13381401913 932.65555586542 510.73381401913 933.65555586542 C 510.33381401913 934.55555586542 509.53381401913 935.05555586542 508.73381401913 935.35555586542 C 506.83381401913 936.15555586542 504.53381401913 936.35555586542 502.43381401913 936.15555586542 C 499.83381401913 935.95555586542 498.13381401913 934.05555586542 496.03381401913 932.75555586542 C 494.63381401913 931.95555586542 493.13381401913 931.35555586542 491.53381401913 931.45555586542 C 490.93381401913 931.45555586542 490.23381401913 931.55555586542 489.63381401913 931.75555586542 C 484.43381401913 926.75555586542 481.43381401913 920.85555586542 481.23381401913 915.15555586542 C 481.23381401913 915.05555586542 481.23381401913 914.95555586542 481.13381401913 914.85555586542 C 482.23381401913 913.55555586542 483.23381401913 912.15555586542 484.03381401913 910.55555586542 Z M 474.73381401913 924.95555586542 C 475.73381401913 922.35555586542 477.33381401913 920.15555586542 479.03381401913 917.95555586542 C 479.33381401913 917.55555586542 479.63381401913 917.15555586542 479.93381401913 916.85555586542 C 480.53381401913 922.25555586542 483.33381401913 927.65555586542 488.03381401913 932.45555586542 C 487.73381401913 932.55555586542 487.43381401913 932.65555586542 487.23381401913 932.75555586542 C 484.43381401913 933.75555586542 481.53381401913 934.75555586542 478.63381401913 934.95555586542 C 477.83381401913 935.05555586542 476.83381401913 935.05555586542 476.13381401913 934.65555586542 C 475.33381401913 934.15555586542 474.93381401913 933.35555586542 474.53381401913 932.45555586542 C 474.53381401913 932.45555586542 474.53381401913 932.35555586542 474.53381401913 932.35555586542 C 473.63381401913 929.85555586542 473.83381401913 927.35555586542 474.73381401913 924.95555586542 Z M 577.33381401913 1049.75555586542 C 565.73381401913 1051.45555586542 551.53381401913 1050.65555586542 533.93381401913 1047.35555586542 C 530.03381401913 1046.65555586542 526.23381401913 1045.65555586542 522.53381401913 1044.45555586542 C 513.03381401913 1041.35555586542 504.03381401913 1036.75555586542 495.83381401913 1030.65555586542 C 474.23381401913 1014.55555586542 460.63381401913 991.95555586542 455.93381401913 964.75555586542 C 463.63381401913 986.95555586542 477.33381401913 1005.65555586542 496.43381401913 1019.85555586542 C 505.83381401913 1026.85555586542 516.13381401913 1032.25555586542 527.03381401913 1035.75555586542 C 531.23381401913 1037.15555586542 535.63381401913 1038.25555586542 540.03381401913 1039.05555586542 C 560.23381401913 1042.85555586542 576.53381401913 1043.75555586542 589.83381401913 1041.75555586542 C 601.63381401913 1039.95555586542 612.33381401913 1036.75555586542 621.83381401913 1032.65555586542 C 609.93381401913 1040.65555586542 595.23381401913 1047.05555586542 577.33381401913 1049.75555586542 Z M 624.63381401913 970.45555586542 C 621.73381401913 975.25555586542 609.53381401913 992.65555586542 608.53381401913 994.75555586542 C 607.43381401913 997.15555586542 606.83381401913 999.85555586542 606.23381401913 1002.45555586542 C 605.53381401913 1005.15555586542 604.83381401913 1007.65555586542 604.23381401913 1009.55555586542 C 603.53381401913 1011.35555586542 601.03381401913 1011.05555586542 601.83381401913 1008.65555586542 C 602.63381401913 1006.15555586542 604.13381401913 1000.55555586542 603.93381401913 997.85555586542 C 603.83381401913 994.75555586542 602.63381401913 991.65555586542 601.73381401913 988.75555586542 C 600.73381401913 985.15555586542 593.13381401913 969.45555586542 591.23381401913 964.55555586542 C 589.83381401913 960.95555586542 586.13381401913 949.45555586542 589.53381401913 948.85555586542 C 592.63381401913 948.25555586542 600.73381401913 979.95555586542 604.53381401913 991.55555586542 C 604.13381401913 988.55555586542 604.23381401913 984.55555586542 603.23381401913 979.65555586542 C 602.13381401913 974.05555586542 599.73381401913 967.35555586542 597.53381401913 961.05555586542 C 596.33381401913 957.75555586542 594.03381401913 952.15555586542 592.93381401913 948.75555586542 C 591.93381401913 945.85555586542 589.93381401913 940.75555586542 593.33381401913 940.55555586542 C 595.93381401913 940.55555586542 600.93381401913 965.15555586542 603.43381401913 972.15555586542 C 603.13381401913 965.25555586542 597.43381401913 947.85555586542 597.23381401913 940.65555586542 C 597.23381401913 938.95555586542 597.13381401913 936.85555586542 597.83381401913 935.25555586542 C 598.23381401913 934.55555586542 598.83381401913 934.55555586542 599.33381401913 935.05555586542 C 599.83381401913 935.55555586542 600.03381401913 936.25555586542 600.23381401913 936.85555586542 C 600.63381401913 938.05555586542 601.03381401913 939.25555586542 601.33381401913 940.55555586542 C 602.23381401913 944.35555586542 604.13381401913 965.15555586542 605.03381401913 968.85555586542 C 606.03381401913 956.15555586542 603.83381401913 944.15555586542 606.63381401913 939.95555586542 C 607.83381401913 938.15555586542 609.13381401913 940.25555586542 608.83381401913 947.85555586542 C 608.43381401913 957.55555586542 606.23381401913 978.95555586542 606.43381401913 990.15555586542 C 609.03381401913 973.75555586542 610.93381401913 962.95555586542 611.23381401913 956.05555586542 C 611.43381401913 952.15555586542 612.83381401913 948.95555586542 614.53381401913 949.35555586542 C 619.23381401913 950.45555586542 616.43381401913 962.55555586542 614.53381401913 968.65555586542 C 613.23381401913 972.55555586542 608.53381401913 988.35555586542 607.73381401913 991.75555586542 C 610.23381401913 988.15555586542 615.13381401913 978.15555586542 616.43381401913 974.75555586542 C 618.63381401913 969.15555586542 623.13381401913 959.55555586542 625.33381401913 961.65555586542 C 627.53381401913 963.75555586542 626.53381401913 967.35555586542 624.63381401913 970.45555586542 Z M 629.73381401913 940.55555586542 C 627.83381401913 940.95555586542 625.53381401913 940.25555586542 623.53381401913 938.65555586542 C 617.93381401913 933.85555586542 616.63381401913 923.45555586542 616.03381401913 918.35555586542 C 616.03381401913 918.25555586542 616.03381401913 918.05555586542 615.93381401913 917.75555586542 C 613.93381401913 899.45555586542 606.33381401913 889.45555586542 600.33381401913 884.35555586542 C 599.53381401913 883.75555586542 598.83381401913 883.05555586542 598.03381401913 882.55555586542 C 587.43381401913 874.95555586542 573.93381401913 875.15555586542 561.53381401913 875.75555586542 C 560.33381401913 874.75555586542 558.93381401913 873.35555586542 558.43381401913 871.75555586542 C 558.13381401913 870.65555586542 558.23381401913 869.65555586542 558.83381401913 868.65555586542 C 559.03381401913 868.35555586542 560.13381401913 867.65555586542 560.63381401913 867.65555586542 C 562.13381401913 867.65555586542 563.13381401913 868.65555586542 563.13381401913 868.65555586542 C 563.13381401913 868.65555586542 562.83381401913 867.25555586542 561.63381401913 865.85555586542 C 560.83381401913 864.95555586542 559.53381401913 864.35555586542 558.43381401913 863.85555586542 C 557.83381401913 863.55555586542 557.23381401913 863.35555586542 556.83381401913 863.05555586542 C 555.13381401913 861.95555586542 555.73381401913 859.45555586542 556.53381401913 857.15555586542 C 556.83381401913 856.25555586542 558.13381401913 854.45555586542 559.03381401913 853.35555586542 C 563.13381401913 852.45555586542 568.03381401913 852.75555586542 571.83381401913 852.85555586542 C 578.93381401913 853.15555586542 586.13381401913 854.35555586542 592.93381401913 856.35555586542 C 596.13381401913 857.25555586542 604.63381401913 860.25555586542 612.83381401913 867.25555586542 C 619.33381401913 872.75555586542 623.83381401913 879.35555586542 626.33381401913 886.65555586542 C 629.93381401913 897.45555586542 629.03381401913 908.35555586542 628.33381401913 918.05555586542 C 628.03381401913 921.95555586542 627.73381401913 925.65555586542 627.73381401913 929.05555586542 C 627.73381401913 930.65555586542 628.03381401913 934.65555586542 630.43381401913 936.65555586542 C 631.23381401913 937.35555586542 632.13381401913 937.65555586542 633.13381401913 937.75555586542 C 632.33381401913 939.25555586542 631.23381401913 940.25555586542 629.73381401913 940.55555586542 Z M 632.73381401913 989.05555586542 C 633.93381401913 987.55555586542 635.43381401913 985.25555586542 637.03381401913 982.45555586542 C 638.53381401913 979.65555586542 640.03381401913 976.35555586542 641.23381401913 972.95555586542 C 643.63381401913 966.25555586542 644.83381401913 959.25555586542 645.13381401913 956.65555586542 C 645.83381401913 950.45555586542 645.73381401913 944.25555586542 645.83381401913 937.95555586542 C 645.93381401913 932.55555586542 645.93381401913 926.95555586542 643.93381401913 921.75555586542 C 645.73381401913 922.25555586542 647.43381401913 921.65555586542 648.93381401913 920.85555586542 C 649.53381401913 924.45555586542 649.43381401913 928.05555586542 649.63381401913 931.65555586542 C 649.83381401913 935.55555586542 650.53381401913 939.35555586542 650.63381401913 943.25555586542 C 650.93381401913 951.45555586542 649.63381401913 959.75555586542 647.63381401913 967.65555586542 C 646.63381401913 971.65555586542 645.43381401913 975.65555586542 643.93381401913 979.45555586542 C 642.63381401913 982.85555586542 641.23381401913 986.15555586542 639.33381401913 989.35555586542 C 638.53381401913 990.75555586542 637.43381401913 992.15555586542 636.33381401913 993.25555586542 C 636.13381401913 993.45555586542 635.93381401913 993.55555586542 635.83381401913 993.75555586542 C 634.53381401913 992.55555586542 633.53381401913 990.75555586542 632.73381401913 989.05555586542 Z M 654.23381401913 961.15555586542 C 653.13381401913 969.05555586542 650.93381401913 977.35555586542 647.13381401913 984.45555586542 C 645.23381401913 987.95555586542 643.03381401913 991.25555586542 640.93381401913 994.55555586542 L 640.33381401913 995.35555586542 C 638.63381401913 995.75555586542 637.23381401913 995.15555586542 636.13381401913 994.15555586542 L 636.33381401913 993.95555586542 C 638.73381401913 991.95555586542 640.23381401913 989.05555586542 641.53381401913 986.25555586542 C 644.63381401913 979.45555586542 647.23381401913 972.25555586542 648.83381401913 964.95555586542 C 650.43381401913 957.45555586542 651.43381401913 949.65555586542 651.03381401913 941.95555586542 C 650.83381401913 938.35555586542 650.23381401913 934.85555586542 650.03381401913 931.35555586542 C 649.83381401913 927.85555586542 649.93381401913 924.35555586542 649.43381401913 920.95555586542 C 650.43381401913 920.85555586542 651.53381401913 920.75555586542 652.33381401913 919.95555586542 C 653.43381401913 922.45555586542 653.53381401913 925.45555586542 653.63381401913 928.15555586542 C 653.73381401913 931.55555586542 653.93381401913 934.75555586542 654.33381401913 938.05555586542 C 655.03381401913 945.85555586542 655.33381401913 953.15555586542 654.23381401913 961.15555586542 Z"/><path fill-rule="evenodd" transform="matrix(0.49727262830422503 0 0 0.49727262830422503 10.90257164865454 30.694133988567675)" d="M 609.93381401913 870.65555586542 C 602.33381401913 864.15555586542 594.63381401913 861.45555586542 591.63381401913 860.65555586542 C 576.53381401913 856.25555586542 564.93381401913 857.25555586542 561.73381401913 857.65555586542 C 561.03381401913 857.75555586542 560.83381401913 858.25555586542 560.73381401913 858.55555586542 C 560.53381401913 859.15555586542 560.83381401913 859.95555586542 561.33381401913 860.35555586542 C 561.63381401913 860.65555586542 562.13381401913 860.75555586542 562.63381401913 860.85555586542 C 564.23381401913 860.85555586542 565.23381401913 860.85555586542 566.53381401913 860.75555586542 C 566.83381401913 860.75555586542 567.13381401913 860.75555586542 567.43381401913 860.75555586542 C 568.33381401913 860.75555586542 590.43381401913 859.85555586542 606.33381401913 871.55555586542 L 606.53381401913 871.65555586542 C 606.93381401913 871.95555586542 607.43381401913 872.35555586542 608.23381401913 872.95555586542 C 612.43381401913 876.45555586542 618.23381401913 883.65555586542 622.73381401913 897.55555586542 C 623.13381401913 898.85555586542 623.33381401913 900.15555586542 623.63381401913 901.45555586542 C 623.93381401913 902.95555586542 624.13381401913 904.45555586542 624.63381401913 905.75555586542 C 624.63381401913 900.85555586542 624.33381401913 894.35555586542 622.23381401913 888.05555586542 C 619.83381401913 881.55555586542 615.73381401913 875.65555586542 609.93381401913 870.65555586542 Z"/><path id="text" transform="matrix(0.7832726618648289 0 0 0.7832726618648289 240.97048289036726 50.86588927705148)" d="M 187.33671305004 555.88710660531 L 187.33671305004 573.64710660531 L 218.44071305004 573.64710660531 L 218.44071305004 586.12710660531 L 187.33671305004 586.12710660531 L 187.33671305004 610.60710660531 L 171.78471305004 610.60710660531 L 171.78471305004 543.40710660531 L 222.56871305004 543.40710660531 L 222.56871305004 555.88710660531 L 187.33671305004 555.88710660531 Z M 281.03271305004 589.00710660531 L 241.96071305004 589.00710660531 C 242.66471305004 592.20710660531 244.32871305004 594.73510660531 246.95271305004 596.59110660531 C 249.57671305004 598.44710660531 252.84071305004 599.37510660531 256.74471305004 599.37510660531 C 259.43271305004 599.37510660531 261.81671305004 598.97510660531 263.89671305004 598.17510660531 C 265.97671305004 597.37510660531 267.91271305004 596.11110660531 269.70471305004 594.38310660531 L 277.67271305004 603.02310660531 C 272.80871305004 608.59110660531 265.70471305004 611.37510660531 256.36071305004 611.37510660531 C 250.53671305004 611.37510660531 245.38471305004 610.23910660531 240.90471305004 607.96710660531 C 236.42471305004 605.69510660531 232.96871305004 602.54310660531 230.53671305004 598.51110660531 C 228.10471305004 594.47910660531 226.88871305004 589.90310660531 226.88871305004 584.78310660531 C 226.88871305004 579.72710660531 228.08871305004 575.16710660531 230.48871305004 571.10310660531 C 232.88871305004 567.03910660531 236.18471305004 563.87110660531 240.37671305004 561.59910660531 C 244.56871305004 559.32710660531 249.25671305004 558.19110660531 254.44071305004 558.19110660531 C 259.49671305004 558.19110660531 264.07271305004 559.27910660531 268.16871305004 561.45510660531 C 272.26471305004 563.63110660531 275.48071305004 566.75110660531 277.81671305004 570.81510660531 C 280.15271305004 574.87910660531 281.32071305004 579.59910660531 281.32071305004 584.97510660531 C 281.32071305004 585.16710660531 281.22471305004 586.51110660531 281.03271305004 589.00710660531 Z M 245.99271305004 572.39910660531 C 243.68871305004 574.31910660531 242.28071305004 576.94310660531 241.76871305004 580.27110660531 L 267.20871305004 580.27110660531 C 266.69671305004 577.00710660531 265.28871305004 574.39910660531 262.98471305004 572.44710660531 C 260.68071305004 570.49510660531 257.86471305004 569.51910660531 254.53671305004 569.51910660531 C 251.14471305004 569.51910660531 248.29671305004 570.47910660531 245.99271305004 572.39910660531 Z M 329.12871305004 563.90310660531 C 333.41671305004 567.71110660531 335.56071305004 573.45510660531 335.56071305004 581.13510660531 L 335.56071305004 610.60710660531 L 321.54471305004 610.60710660531 L 321.54471305004 604.17510660531 C 318.72871305004 608.97510660531 313.48071305004 611.37510660531 305.80071305004 611.37510660531 C 301.83271305004 611.37510660531 298.39271305004 610.70310660531 295.48071305004 609.35910660531 C 292.56871305004 608.01510660531 290.34471305004 606.15910660531 288.80871305004 603.79110660531 C 287.27271305004 601.42310660531 286.50471305004 598.73510660531 286.50471305004 595.72710660531 C 286.50471305004 590.92710660531 288.31271305004 587.15110660531 291.92871305004 584.39910660531 C 295.54471305004 581.64710660531 301.12871305004 580.27110660531 308.68071305004 580.27110660531 L 320.58471305004 580.27110660531 C 320.58471305004 577.00710660531 319.59271305004 574.49510660531 317.60871305004 572.73510660531 C 315.62471305004 570.97510660531 312.64871305004 570.09510660531 308.68071305004 570.09510660531 C 305.92871305004 570.09510660531 303.22471305004 570.52710660531 300.56871305004 571.39110660531 C 297.91271305004 572.25510660531 295.65671305004 573.42310660531 293.80071305004 574.89510660531 L 288.42471305004 564.43110660531 C 291.24071305004 562.44710660531 294.61671305004 560.91110660531 298.55271305004 559.82310660531 C 302.48871305004 558.73510660531 306.53671305004 558.19110660531 310.69671305004 558.19110660531 C 318.69671305004 558.19110660531 324.84071305004 560.09510660531 329.12871305004 563.90310660531 Z M 316.36071305004 599.51910660531 C 318.34471305004 598.33510660531 319.75271305004 596.59110660531 320.58471305004 594.28710660531 L 320.58471305004 589.00710660531 L 310.31271305004 589.00710660531 C 304.16871305004 589.00710660531 301.09671305004 591.02310660531 301.09671305004 595.05510660531 C 301.09671305004 596.97510660531 301.84871305004 598.49510660531 303.35271305004 599.61510660531 C 304.85671305004 600.73510660531 306.92071305004 601.29510660531 309.54471305004 601.29510660531 C 312.10471305004 601.29510660531 314.37671305004 600.70310660531 316.36071305004 599.51910660531 Z M 353.89671305004 609.79110660531 C 349.80071305004 608.73510660531 346.53671305004 607.40710660531 344.10471305004 605.80710660531 L 349.09671305004 595.05510660531 C 351.40071305004 596.52710660531 354.18471305004 597.72710660531 357.44871305004 598.65510660531 C 360.71271305004 599.58310660531 363.91271305004 600.04710660531 367.04871305004 600.04710660531 C 373.38471305004 600.04710660531 376.55271305004 598.47910660531 376.55271305004 595.34310660531 C 376.55271305004 593.87110660531 375.68871305004 592.81510660531 373.96071305004 592.17510660531 C 372.23271305004 591.53510660531 369.57671305004 590.99110660531 365.99271305004 590.54310660531 C 361.76871305004 589.90310660531 358.28071305004 589.16710660531 355.52871305004 588.33510660531 C 352.77671305004 587.50310660531 350.39271305004 586.03110660531 348.37671305004 583.91910660531 C 346.36071305004 581.80710660531 345.35271305004 578.79910660531 345.35271305004 574.89510660531 C 345.35271305004 571.63110660531 346.29671305004 568.73510660531 348.18471305004 566.20710660531 C 350.07271305004 563.67910660531 352.82471305004 561.71110660531 356.44071305004 560.30310660531 C 360.05671305004 558.89510660531 364.32871305004 558.19110660531 369.25671305004 558.19110660531 C 372.90471305004 558.19110660531 376.53671305004 558.59110660531 380.15271305004 559.39110660531 C 383.76871305004 560.19110660531 386.76071305004 561.29510660531 389.12871305004 562.70310660531 L 384.13671305004 573.35910660531 C 379.59271305004 570.79910660531 374.63271305004 569.51910660531 369.25671305004 569.51910660531 C 366.05671305004 569.51910660531 363.65671305004 569.96710660531 362.05671305004 570.86310660531 C 360.45671305004 571.75910660531 359.65671305004 572.91110660531 359.65671305004 574.31910660531 C 359.65671305004 575.91910660531 360.52071305004 577.03910660531 362.24871305004 577.67910660531 C 363.97671305004 578.31910660531 366.72871305004 578.92710660531 370.50471305004 579.50310660531 C 374.72871305004 580.20710660531 378.18471305004 580.95910660531 380.87271305004 581.75910660531 C 383.56071305004 582.55910660531 385.89671305004 584.01510660531 387.88071305004 586.12710660531 C 389.86471305004 588.23910660531 390.85671305004 591.18310660531 390.85671305004 594.95910660531 C 390.85671305004 598.15910660531 389.89671305004 601.00710660531 387.97671305004 603.50310660531 C 386.05671305004 605.99910660531 383.25671305004 607.93510660531 379.57671305004 609.31110660531 C 375.89671305004 610.68710660531 371.52871305004 611.37510660531 366.47271305004 611.37510660531 C 362.18471305004 611.37510660531 357.99271305004 610.84710660531 353.89671305004 609.79110660531 Z M 433.38471305004 608.11110660531 C 431.91271305004 609.19910660531 430.10471305004 610.01510660531 427.96071305004 610.55910660531 C 425.81671305004 611.10310660531 423.56071305004 611.37510660531 421.19271305004 611.37510660531 C 415.04871305004 611.37510660531 410.29671305004 609.80710660531 406.93671305004 606.67110660531 C 403.57671305004 603.53510660531 401.89671305004 598.92710660531 401.89671305004 592.84710660531 L 401.89671305004 571.63110660531 L 393.92871305004 571.63110660531 L 393.92871305004 560.11110660531 L 401.89671305004 560.11110660531 L 401.89671305004 547.53510660531 L 416.87271305004 547.53510660531 L 416.87271305004 560.11110660531 L 429.73671305004 560.11110660531 L 429.73671305004 571.63110660531 L 416.87271305004 571.63110660531 L 416.87271305004 592.65510660531 C 416.87271305004 594.83110660531 417.43271305004 596.51110660531 418.55271305004 597.69510660531 C 419.67271305004 598.87910660531 421.25671305004 599.47110660531 423.30471305004 599.47110660531 C 425.67271305004 599.47110660531 427.68871305004 598.83110660531 429.35271305004 597.55110660531 L 433.38471305004 608.11110660531 Z M 456.47271305004 607.29510660531 C 450.93671305004 604.31910660531 446.58471305004 600.19110660531 443.41671305004 594.91110660531 C 440.24871305004 589.63110660531 438.66471305004 583.66310660531 438.66471305004 577.00710660531 C 438.66471305004 570.35110660531 440.24871305004 564.38310660531 443.41671305004 559.10310660531 C 446.58471305004 553.82310660531 450.93671305004 549.69510660531 456.47271305004 546.71910660531 C 462.00871305004 543.74310660531 468.23271305004 542.25510660531 475.14471305004 542.25510660531 C 480.96871305004 542.25510660531 486.23271305004 543.27910660531 490.93671305004 545.32710660531 C 495.64071305004 547.37510660531 499.59271305004 550.31910660531 502.79271305004 554.15910660531 L 492.80871305004 563.37510660531 C 488.26471305004 558.12710660531 482.63271305004 555.50310660531 475.91271305004 555.50310660531 C 471.75271305004 555.50310660531 468.04071305004 556.41510660531 464.77671305004 558.23910660531 C 461.51271305004 560.06310660531 458.96871305004 562.60710660531 457.14471305004 565.87110660531 C 455.32071305004 569.13510660531 454.40871305004 572.84710660531 454.40871305004 577.00710660531 C 454.40871305004 581.16710660531 455.32071305004 584.87910660531 457.14471305004 588.14310660531 C 458.96871305004 591.40710660531 461.51271305004 593.95110660531 464.77671305004 595.77510660531 C 468.04071305004 597.59910660531 471.75271305004 598.51110660531 475.91271305004 598.51110660531 C 482.63271305004 598.51110660531 488.26471305004 595.85510660531 492.80871305004 590.54310660531 L 502.79271305004 599.75910660531 C 499.59271305004 603.66310660531 495.62471305004 606.63910660531 490.88871305004 608.68710660531 C 486.15271305004 610.73510660531 480.87271305004 611.75910660531 475.04871305004 611.75910660531 C 468.20071305004 611.75910660531 462.00871305004 610.27110660531 456.47271305004 607.29510660531 Z M 559.09671305004 563.95110660531 C 563.03271305004 567.79110660531 565.00071305004 573.48710660531 565.00071305004 581.03910660531 L 565.00071305004 610.60710660531 L 550.02471305004 610.60710660531 L 550.02471305004 583.34310660531 C 550.02471305004 579.24710660531 549.12871305004 576.19110660531 547.33671305004 574.17510660531 C 545.54471305004 572.15910660531 542.95271305004 571.15110660531 539.56071305004 571.15110660531 C 535.78471305004 571.15110660531 532.77671305004 572.31910660531 530.53671305004 574.65510660531 C 528.29671305004 576.99110660531 527.17671305004 580.46310660531 527.17671305004 585.07110660531 L 527.17671305004 610.60710660531 L 512.20071305004 610.60710660531 L 512.20071305004 539.37510660531 L 527.17671305004 539.37510660531 L 527.17671305004 564.33510660531 C 529.16071305004 562.35110660531 531.56071305004 560.83110660531 534.37671305004 559.77510660531 C 537.19271305004 558.71910660531 540.26471305004 558.19110660531 543.59271305004 558.19110660531 C 549.99271305004 558.19110660531 555.16071305004 560.11110660531 559.09671305004 563.95110660531 Z M 589.04871305004 607.96710660531 C 584.72871305004 605.69510660531 581.35271305004 602.54310660531 578.92071305004 598.51110660531 C 576.48871305004 594.47910660531 575.27271305004 589.90310660531 575.27271305004 584.78310660531 C 575.27271305004 579.66310660531 576.48871305004 575.08710660531 578.92071305004 571.05510660531 C 581.35271305004 567.02310660531 584.72871305004 563.87110660531 589.04871305004 561.59910660531 C 593.36871305004 559.32710660531 598.24871305004 558.19110660531 603.68871305004 558.19110660531 C 609.12871305004 558.19110660531 613.99271305004 559.32710660531 618.28071305004 561.59910660531 C 622.56871305004 563.87110660531 625.92871305004 567.02310660531 628.36071305004 571.05510660531 C 630.79271305004 575.08710660531 632.00871305004 579.66310660531 632.00871305004 584.78310660531 C 632.00871305004 589.90310660531 630.79271305004 594.47910660531 628.36071305004 598.51110660531 C 625.92871305004 602.54310660531 622.56871305004 605.69510660531 618.28071305004 607.96710660531 C 613.99271305004 610.23910660531 609.12871305004 611.37510660531 603.68871305004 611.37510660531 C 598.24871305004 611.37510660531 593.36871305004 610.23910660531 589.04871305004 607.96710660531 Z M 613.14471305004 595.19910660531 C 615.60871305004 592.60710660531 616.84071305004 589.13510660531 616.84071305004 584.78310660531 C 616.84071305004 580.43110660531 615.60871305004 576.95910660531 613.14471305004 574.36710660531 C 610.68071305004 571.77510660531 607.52871305004 570.47910660531 603.68871305004 570.47910660531 C 599.84871305004 570.47910660531 596.68071305004 571.77510660531 594.18471305004 574.36710660531 C 591.68871305004 576.95910660531 590.44071305004 580.43110660531 590.44071305004 584.78310660531 C 590.44071305004 589.13510660531 591.68871305004 592.60710660531 594.18471305004 595.19910660531 C 596.68071305004 597.79110660531 599.84871305004 599.08710660531 603.68871305004 599.08710660531 C 607.52871305004 599.08710660531 610.68071305004 597.79110660531 613.14471305004 595.19910660531 Z M 641.99271305004 558.95910660531 L 656.96871305004 558.95910660531 L 656.96871305004 610.60710660531 L 641.99271305004 610.60710660531 L 641.99271305004 558.95910660531 Z M 642.76071305004 549.35910660531 C 641.03271305004 547.75910660531 640.16871305004 545.77510660531 640.16871305004 543.40710660531 C 640.16871305004 541.03910660531 641.03271305004 539.05510660531 642.76071305004 537.45510660531 C 644.48871305004 535.85510660531 646.72871305004 535.05510660531 649.48071305004 535.05510660531 C 652.23271305004 535.05510660531 654.47271305004 535.82310660531 656.20071305004 537.35910660531 C 657.92871305004 538.89510660531 658.79271305004 540.81510660531 658.79271305004 543.11910660531 C 658.79271305004 545.61510660531 657.92871305004 547.67910660531 656.20071305004 549.31110660531 C 654.47271305004 550.94310660531 652.23271305004 551.75910660531 649.48071305004 551.75910660531 C 646.72871305004 551.75910660531 644.48871305004 550.95910660531 642.76071305004 549.35910660531 Z M 681.01671305004 607.96710660531 C 676.63271305004 605.69510660531 673.20871305004 602.54310660531 670.74471305004 598.51110660531 C 668.28071305004 594.47910660531 667.04871305004 589.90310660531 667.04871305004 584.78310660531 C 667.04871305004 579.66310660531 668.28071305004 575.08710660531 670.74471305004 571.05510660531 C 673.20871305004 567.02310660531 676.63271305004 563.87110660531 681.01671305004 561.59910660531 C 685.40071305004 559.32710660531 690.34471305004 558.19110660531 695.84871305004 558.19110660531 C 701.28871305004 558.19110660531 706.04071305004 559.32710660531 710.10471305004 561.59910660531 C 714.16871305004 563.87110660531 717.12871305004 567.11910660531 718.98471305004 571.34310660531 L 707.36871305004 577.58310660531 C 704.68071305004 572.84710660531 700.80871305004 570.47910660531 695.75271305004 570.47910660531 C 691.84871305004 570.47910660531 688.61671305004 571.75910660531 686.05671305004 574.31910660531 C 683.49671305004 576.87910660531 682.21671305004 580.36710660531 682.21671305004 584.78310660531 C 682.21671305004 589.19910660531 683.49671305004 592.68710660531 686.05671305004 595.24710660531 C 688.61671305004 597.80710660531 691.84871305004 599.08710660531 695.75271305004 599.08710660531 C 700.87271305004 599.08710660531 704.74471305004 596.71910660531 707.36871305004 591.98310660531 L 718.98471305004 598.31910660531 C 717.12871305004 602.41510660531 714.16871305004 605.61510660531 710.10471305004 607.91910660531 C 706.04071305004 610.22310660531 701.28871305004 611.37510660531 695.84871305004 611.37510660531 C 690.34471305004 611.37510660531 685.40071305004 610.23910660531 681.01671305004 607.96710660531 Z M 777.25671305004 589.00710660531 L 738.18471305004 589.00710660531 C 738.88871305004 592.20710660531 740.55271305004 594.73510660531 743.17671305004 596.59110660531 C 745.80071305004 598.44710660531 749.06471305004 599.37510660531 752.96871305004 599.37510660531 C 755.65671305004 599.37510660531 758.04071305004 598.97510660531 760.12071305004 598.17510660531 C 762.20071305004 597.37510660531 764.13671305004 596.11110660531 765.92871305004 594.38310660531 L 773.89671305004 603.02310660531 C 769.03271305004 608.59110660531 761.92871305004 611.37510660531 752.58471305004 611.37510660531 C 746.76071305004 611.37510660531 741.60871305004 610.23910660531 737.12871305004 607.96710660531 C 732.64871305004 605.69510660531 729.19271305004 602.54310660531 726.76071305004 598.51110660531 C 724.32871305004 594.47910660531 723.11271305004 589.90310660531 723.11271305004 584.78310660531 C 723.11271305004 579.72710660531 724.31271305004 575.16710660531 726.71271305004 571.10310660531 C 729.11271305004 567.03910660531 732.40871305004 563.87110660531 736.60071305004 561.59910660531 C 740.79271305004 559.32710660531 745.48071305004 558.19110660531 750.66471305004 558.19110660531 C 755.72071305004 558.19110660531 760.29671305004 559.27910660531 764.39271305004 561.45510660531 C 768.48871305004 563.63110660531 771.70471305004 566.75110660531 774.04071305004 570.81510660531 C 776.37671305004 574.87910660531 777.54471305004 579.59910660531 777.54471305004 584.97510660531 C 777.54471305004 585.16710660531 777.44871305004 586.51110660531 777.25671305004 589.00710660531 Z M 742.21671305004 572.39910660531 C 739.91271305004 574.31910660531 738.50471305004 576.94310660531 737.99271305004 580.27110660531 L 763.43271305004 580.27110660531 C 762.92071305004 577.00710660531 761.51271305004 574.39910660531 759.20871305004 572.44710660531 C 756.90471305004 570.49510660531 754.08871305004 569.51910660531 750.76071305004 569.51910660531 C 747.36871305004 569.51910660531 744.52071305004 570.47910660531 742.21671305004 572.39910660531 Z"/></svg>