<svg xmlns="http://www.w3.org/2000/svg" version="1.1" xmlns:xlink="http://www.w3.org/1999/xlink" xmlns:svgjs="http://svgjs.dev/svgjs" width="1000" height="186" viewBox="0 0 1000 186"><g transform="matrix(1,0,0,1,-0.606058894654268,0.23366904655773624)"><svg viewBox="0 0 396 74" data-background-color="#ffffff" preserveAspectRatio="xMidYMid meet" height="186" width="1000" xmlns="http://www.w3.org/2000/svg" xmlns:xlink="http://www.w3.org/1999/xlink"><defs></defs><g id="tight-bounds" transform="matrix(1,0,0,1,0.23999932228309717,-0.09296510454447571)"><svg viewBox="0 0 395.52 74.18593020908895" height="74.18593020908895" width="395.52"><g><svg viewBox="0 0 471.2576180443021 88.39169893491125" height="74.18593020908895" width="395.52"><g transform="matrix(1,0,0,1,75.73761804430212,27.31431796728159)"><svg viewBox="0 0 395.52 33.76306300034807" height="33.76306300034807" width="395.52"><g><svg viewBox="0 0 395.52 33.76306300034807" height="33.76306300034807" width="395.52"><g><svg viewBox="0 0 395.52 33.76306300034807" height="33.76306300034807" width="395.52"><g transform="matrix(1,0,0,1,0,0)"><svg width="395.52" viewBox="4.150000095367432 -39.349998474121094 574.5599975585938 49.04999923706055" height="33.76306300034807" data-palette-color="#005b08"><path d="M29.85-18.2Q32.85-17.25 34.55-15.03 36.25-12.8 36.25-9.55L36.25-9.55Q36.25-4.95 32.68-2.48 29.1 0 22.25 0L22.25 0 4.15 0 4.15-35 21.25-35Q27.65-35 31.08-32.55 34.5-30.1 34.5-25.9L34.5-25.9Q34.5-23.35 33.27-21.35 32.05-19.35 29.85-18.2L29.85-18.2ZM20.25-28.9L12.2-28.9 12.2-20.65 20.25-20.65Q23.25-20.65 24.8-21.7 26.35-22.75 26.35-24.8L26.35-24.8Q26.35-26.85 24.8-27.88 23.25-28.9 20.25-28.9L20.25-28.9ZM21.65-6.1Q24.85-6.1 26.48-7.15 28.1-8.2 28.1-10.4L28.1-10.4Q28.1-14.75 21.65-14.75L21.65-14.75 12.2-14.75 12.2-6.1 21.65-6.1ZM52.7-27.3Q58.95-27.3 62.3-24.33 65.65-21.35 65.65-15.35L65.65-15.35 65.65 0 58.35 0 58.35-3.35Q56.15 0.4 50.15 0.4L50.15 0.4Q47.05 0.4 44.77-0.65 42.5-1.7 41.3-3.55 40.1-5.4 40.1-7.75L40.1-7.75Q40.1-11.5 42.92-13.65 45.75-15.8 51.65-15.8L51.65-15.8 57.85-15.8Q57.85-18.35 56.3-19.73 54.75-21.1 51.65-21.1L51.65-21.1Q49.5-21.1 47.42-20.43 45.35-19.75 43.9-18.6L43.9-18.6 41.1-24.05Q43.3-25.6 46.37-26.45 49.45-27.3 52.7-27.3L52.7-27.3ZM52.1-4.85Q54.1-4.85 55.65-5.78 57.2-6.7 57.85-8.5L57.85-8.5 57.85-11.25 52.5-11.25Q47.7-11.25 47.7-8.1L47.7-8.1Q47.7-6.6 48.87-5.73 50.05-4.85 52.1-4.85L52.1-4.85ZM86 0.4Q81.69 0.4 78.27-1.38 74.84-3.15 72.92-6.3 70.99-9.45 70.99-13.45L70.99-13.45Q70.99-17.45 72.92-20.6 74.84-23.75 78.27-25.53 81.69-27.3 86-27.3L86-27.3Q90.25-27.3 93.42-25.53 96.59-23.75 98.05-20.45L98.05-20.45 92-17.2Q89.89-20.9 85.94-20.9L85.94-20.9Q82.89-20.9 80.89-18.9 78.89-16.9 78.89-13.45L78.89-13.45Q78.89-10 80.89-8 82.89-6 85.94-6L85.94-6Q89.94-6 92-9.7L92-9.7 98.05-6.4Q96.59-3.2 93.42-1.4 90.25 0.4 86 0.4L86 0.4ZM122.39 0L113.89-10.55 110.14-6.85 110.14 0 102.34 0 102.34-37.1 110.14-37.1 110.14-16.1 121.54-26.9 130.84-26.9 119.64-15.5 131.84 0 122.39 0ZM151.04-27.3Q154.79-27.3 157.87-25.58 160.94-23.85 162.69-20.73 164.44-17.6 164.44-13.45L164.44-13.45Q164.44-9.3 162.69-6.18 160.94-3.05 157.87-1.33 154.79 0.4 151.04 0.4L151.04 0.4Q145.89 0.4 142.94-2.85L142.94-2.85 142.94 9.7 135.14 9.7 135.14-26.9 142.59-26.9 142.59-23.8Q145.49-27.3 151.04-27.3L151.04-27.3ZM149.69-6Q152.69-6 154.62-8.03 156.54-10.05 156.54-13.45L156.54-13.45Q156.54-16.85 154.62-18.88 152.69-20.9 149.69-20.9L149.69-20.9Q146.69-20.9 144.77-18.88 142.84-16.85 142.84-13.45L142.84-13.45Q142.84-10.05 144.77-8.03 146.69-6 149.69-6L149.69-6ZM180.04-27.3Q186.29-27.3 189.64-24.33 192.99-21.35 192.99-15.35L192.99-15.35 192.99 0 185.69 0 185.69-3.35Q183.49 0.4 177.49 0.4L177.49 0.4Q174.39 0.4 172.11-0.65 169.84-1.7 168.64-3.55 167.44-5.4 167.44-7.75L167.44-7.75Q167.44-11.5 170.26-13.65 173.09-15.8 178.99-15.8L178.99-15.8 185.19-15.8Q185.19-18.35 183.64-19.73 182.09-21.1 178.99-21.1L178.99-21.1Q176.84-21.1 174.76-20.43 172.69-19.75 171.24-18.6L171.24-18.6 168.44-24.05Q170.64-25.6 173.71-26.45 176.79-27.3 180.04-27.3L180.04-27.3ZM179.44-4.85Q181.44-4.85 182.99-5.78 184.54-6.7 185.19-8.5L185.19-8.5 185.19-11.25 179.84-11.25Q175.04-11.25 175.04-8.1L175.04-8.1Q175.04-6.6 176.21-5.73 177.39-4.85 179.44-4.85L179.44-4.85ZM213.34 0.4Q209.04 0.4 205.61-1.38 202.19-3.15 200.26-6.3 198.34-9.45 198.34-13.45L198.34-13.45Q198.34-17.45 200.26-20.6 202.19-23.75 205.61-25.53 209.04-27.3 213.34-27.3L213.34-27.3Q217.59-27.3 220.76-25.53 223.94-23.75 225.39-20.45L225.39-20.45 219.34-17.2Q217.24-20.9 213.29-20.9L213.29-20.9Q210.24-20.9 208.24-18.9 206.24-16.9 206.24-13.45L206.24-13.45Q206.24-10 208.24-8 210.24-6 213.29-6L213.29-6Q217.29-6 219.34-9.7L219.34-9.7 225.39-6.4Q223.94-3.2 220.76-1.4 217.59 0.4 213.34 0.4L213.34 0.4ZM249.73 0L241.23-10.55 237.48-6.85 237.48 0 229.68 0 229.68-37.1 237.48-37.1 237.48-16.1 248.88-26.9 258.18-26.9 246.98-15.5 259.18 0 249.73 0ZM289.68-28.5L271.33-28.5 271.33-19.25 287.53-19.25 287.53-12.75 271.33-12.75 271.33 0 263.23 0 263.23-35 289.68-35 289.68-28.5ZM320.28-13.35Q320.28-13.2 320.13-11.25L320.13-11.25 299.78-11.25Q300.33-8.75 302.38-7.3 304.43-5.85 307.48-5.85L307.48-5.85Q309.58-5.85 311.2-6.48 312.83-7.1 314.23-8.45L314.23-8.45 318.38-3.95Q314.58 0.4 307.28 0.4L307.28 0.4Q302.73 0.4 299.23-1.38 295.73-3.15 293.83-6.3 291.93-9.45 291.93-13.45L291.93-13.45Q291.93-17.4 293.8-20.58 295.68-23.75 298.95-25.53 302.23-27.3 306.28-27.3L306.28-27.3Q310.23-27.3 313.43-25.6 316.63-23.9 318.45-20.73 320.28-17.55 320.28-13.35L320.28-13.35ZM306.33-21.4Q303.68-21.4 301.88-19.9 300.08-18.4 299.68-15.8L299.68-15.8 312.93-15.8Q312.53-18.35 310.73-19.88 308.93-21.4 306.33-21.4L306.33-21.4ZM335.58-27.3Q341.83-27.3 345.18-24.33 348.53-21.35 348.53-15.35L348.53-15.35 348.53 0 341.23 0 341.23-3.35Q339.03 0.4 333.03 0.4L333.03 0.4Q329.93 0.4 327.65-0.65 325.38-1.7 324.18-3.55 322.98-5.4 322.98-7.75L322.98-7.75Q322.98-11.5 325.8-13.65 328.63-15.8 334.53-15.8L334.53-15.8 340.73-15.8Q340.73-18.35 339.18-19.73 337.63-21.1 334.53-21.1L334.53-21.1Q332.38-21.1 330.3-20.43 328.23-19.75 326.78-18.6L326.78-18.6 323.98-24.05Q326.18-25.6 329.25-26.45 332.33-27.3 335.58-27.3L335.58-27.3ZM334.98-4.85Q336.98-4.85 338.53-5.78 340.08-6.7 340.73-8.5L340.73-8.5 340.73-11.25 335.38-11.25Q330.58-11.25 330.58-8.1L330.58-8.1Q330.58-6.6 331.75-5.73 332.93-4.85 334.98-4.85L334.98-4.85ZM364.62 0.4Q361.27 0.4 358.07-0.43 354.87-1.25 352.97-2.5L352.97-2.5 355.57-8.1Q357.37-6.95 359.92-6.23 362.47-5.5 364.92-5.5L364.92-5.5Q369.87-5.5 369.87-7.95L369.87-7.95Q369.87-9.1 368.52-9.6 367.17-10.1 364.37-10.45L364.37-10.45Q361.07-10.95 358.92-11.6 356.77-12.25 355.2-13.9 353.62-15.55 353.62-18.6L353.62-18.6Q353.62-21.15 355.1-23.13 356.57-25.1 359.4-26.2 362.22-27.3 366.07-27.3L366.07-27.3Q368.92-27.3 371.75-26.68 374.57-26.05 376.42-24.95L376.42-24.95 373.82-19.4Q370.27-21.4 366.07-21.4L366.07-21.4Q363.57-21.4 362.32-20.7 361.07-20 361.07-18.9L361.07-18.9Q361.07-17.65 362.42-17.15 363.77-16.65 366.72-16.2L366.72-16.2Q370.02-15.65 372.12-15.03 374.22-14.4 375.77-12.75 377.32-11.1 377.32-8.15L377.32-8.15Q377.32-5.65 375.82-3.7 374.32-1.75 371.45-0.68 368.57 0.4 364.62 0.4L364.62 0.4ZM397.37-6.8L399.47-1.3Q398.32-0.45 396.65-0.03 394.97 0.4 393.12 0.4L393.12 0.4Q388.32 0.4 385.7-2.05 383.07-4.5 383.07-9.25L383.07-9.25 383.07-20.3 378.92-20.3 378.92-26.3 383.07-26.3 383.07-32.85 390.87-32.85 390.87-26.3 397.57-26.3 397.57-20.3 390.87-20.3 390.87-9.35Q390.87-7.65 391.75-6.73 392.62-5.8 394.22-5.8L394.22-5.8Q396.07-5.8 397.37-6.8L397.37-6.8ZM421.17 0.6Q415.82 0.6 411.49-1.73 407.17-4.05 404.69-8.18 402.22-12.3 402.22-17.5L402.22-17.5Q402.22-22.7 404.69-26.83 407.17-30.95 411.49-33.27 415.82-35.6 421.22-35.6L421.22-35.6Q425.77-35.6 429.44-34 433.12-32.4 435.62-29.4L435.62-29.4 430.42-24.6Q426.87-28.7 421.62-28.7L421.62-28.7Q418.37-28.7 415.82-27.28 413.27-25.85 411.84-23.3 410.42-20.75 410.42-17.5L410.42-17.5Q410.42-14.25 411.84-11.7 413.27-9.15 415.82-7.73 418.37-6.3 421.62-6.3L421.62-6.3Q426.87-6.3 430.42-10.45L430.42-10.45 435.62-5.65Q433.12-2.6 429.42-1 425.72 0.6 421.17 0.6L421.17 0.6ZM456.87-27.3Q461.87-27.3 464.94-24.3 468.02-21.3 468.02-15.4L468.02-15.4 468.02 0 460.22 0 460.22-14.2Q460.22-17.4 458.82-18.98 457.42-20.55 454.77-20.55L454.77-20.55Q451.82-20.55 450.07-18.73 448.32-16.9 448.32-13.3L448.32-13.3 448.32 0 440.52 0 440.52-37.1 448.32-37.1 448.32-24.1Q449.87-25.65 452.07-26.48 454.27-27.3 456.87-27.3L456.87-27.3ZM488.16 0.4Q483.91 0.4 480.54-1.38 477.16-3.15 475.26-6.3 473.36-9.45 473.36-13.45L473.36-13.45Q473.36-17.45 475.26-20.6 477.16-23.75 480.54-25.53 483.91-27.3 488.16-27.3L488.16-27.3Q492.41-27.3 495.76-25.53 499.11-23.75 501.01-20.6 502.91-17.45 502.91-13.45L502.91-13.45Q502.91-9.45 501.01-6.3 499.11-3.15 495.76-1.38 492.41 0.4 488.16 0.4L488.16 0.4ZM488.16-6Q491.16-6 493.09-8.03 495.01-10.05 495.01-13.45L495.01-13.45Q495.01-16.85 493.09-18.88 491.16-20.9 488.16-20.9L488.16-20.9Q485.16-20.9 483.21-18.88 481.26-16.85 481.26-13.45L481.26-13.45Q481.26-10.05 483.21-8.03 485.16-6 488.16-6L488.16-6ZM508.11 0L508.11-26.9 515.91-26.9 515.91 0 508.11 0ZM512.01-30.65Q509.86-30.65 508.51-31.9 507.16-33.15 507.16-35L507.16-35Q507.16-36.85 508.51-38.1 509.86-39.35 512.01-39.35L512.01-39.35Q514.16-39.35 515.51-38.15 516.86-36.95 516.86-35.15L516.86-35.15Q516.86-33.2 515.51-31.93 514.16-30.65 512.01-30.65L512.01-30.65ZM536.16 0.4Q531.86 0.4 528.43-1.38 525.01-3.15 523.08-6.3 521.16-9.45 521.16-13.45L521.16-13.45Q521.16-17.45 523.08-20.6 525.01-23.75 528.43-25.53 531.86-27.3 536.16-27.3L536.16-27.3Q540.41-27.3 543.58-25.53 546.76-23.75 548.21-20.45L548.21-20.45 542.16-17.2Q540.06-20.9 536.11-20.9L536.11-20.9Q533.06-20.9 531.06-18.9 529.06-16.9 529.06-13.45L529.06-13.45Q529.06-10 531.06-8 533.06-6 536.11-6L536.11-6Q540.11-6 542.16-9.7L542.16-9.7 548.21-6.4Q546.76-3.2 543.58-1.4 540.41 0.4 536.16 0.4L536.16 0.4ZM578.71-13.35Q578.71-13.2 578.55-11.25L578.55-11.25 558.21-11.25Q558.75-8.75 560.8-7.3 562.86-5.85 565.9-5.85L565.9-5.85Q568-5.85 569.63-6.48 571.25-7.1 572.65-8.45L572.65-8.45 576.8-3.95Q573 0.4 565.71 0.4L565.71 0.4Q561.15 0.4 557.65-1.38 554.15-3.15 552.25-6.3 550.36-9.45 550.36-13.45L550.36-13.45Q550.36-17.4 552.23-20.58 554.11-23.75 557.38-25.53 560.65-27.3 564.71-27.3L564.71-27.3Q568.65-27.3 571.86-25.6 575.05-23.9 576.88-20.73 578.71-17.55 578.71-13.35L578.71-13.35ZM564.75-21.4Q562.11-21.4 560.3-19.9 558.5-18.4 558.11-15.8L558.11-15.8 571.36-15.8Q570.96-18.35 569.15-19.88 567.36-21.4 564.75-21.4L564.75-21.4Z" opacity="1" transform="matrix(1,0,0,1,0,0)" fill="#005b08" class="undefined-text-0" data-fill-palette-color="primary" id="text-0"></path></svg></g></svg></g></svg></g></svg></g><g><svg viewBox="0 0 67.76696918343195 88.39169893491125" height="88.39169893491125" width="67.76696918343195"><g><svg xmlns="http://www.w3.org/2000/svg" xmlns:xlink="http://www.w3.org/1999/xlink" version="1.1" x="0" y="0" viewBox="15 5 69 90" enable-background="new 0 0 100 100" xml:space="preserve" height="88.39169893491125" width="67.76696918343195" class="icon-icon-0" data-fill-palette-color="accent" id="icon-0"><path d="M28 22.319v-9.478C28 8.468 31.527 5 35.9 5h29.289C69.562 5 73 8.468 73 12.842v9.478C73 26.693 69.562 30 65.189 30H63v-6.374c0-1.575-0.829-2.853-2.5-2.853-1.67 0-2.5 1.277-2.5 2.853V30H43v-6.374c0-1.575-0.83-2.853-2.5-2.853S38 22.051 38 23.626V30h-2.1C31.527 30 28 26.693 28 22.319zM84 53.083v26.955C84 83.536 81.278 87 77.778 87h-2.785c-1.11 4-5.102 8-9.871 8H35.967c-4.77 0-8.76-4-9.87-8h-3.888C18.71 87 15 83.536 15 80.038V53.083C15 49.585 18.71 47 22.209 47H26v-6.575c0-2.766 0.995-5.142 2.785-6.977C30.848 34.963 33.277 36 36.034 36H38v6.164c0 1.575 0.83 2.852 2.5 2.852s2.5-1.277 2.5-2.852V36h15v6.164c0 1.575 0.83 2.852 2.5 2.852 1.671 0 2.5-1.277 2.5-2.852V36h2.056c2.758 0 5.641-1.037 7.704-2.552 1.791 1.835 3.24 4.211 3.24 6.977V47h1.778C81.278 47 84 49.585 84 53.083zM69 70v-3.09c0-2.624-2.421-4.91-5.046-4.91h-6.604H43.74h-6.604C34.511 62 32 64.286 32 66.91V70M32 75v6.621C32 84.244 34.511 87 37.136 87h6.604 13.611 6.604C66.579 87 69 84.244 69 81.621V75" fill="#1a4900" data-fill-palette-color="accent"></path></svg></g></svg></g></svg></g></svg><rect width="395.52" height="74.18593020908895" fill="none" stroke="none" visibility="hidden"></rect></g></svg></g></svg>
